<?xml version="1.0" encoding="UTF-8"?>
<svg xmlns="http://www.w3.org/2000/svg" xmlns:xlink="http://www.w3.org/1999/xlink" width="588" height="514" viewBox="0 0 588 514"><defs><style> .cls-1, .cls-103, .cls-119, .cls-23, .cls-4, .cls-44, .cls-5, .cls-56, .cls-6, .cls-7, .cls-91, .cls-97, .cls-98 { fill: none; } .cls-2 { isolation: isolate; } .cls-3, .cls-4, .cls-73 { opacity: 0.2; } .cls-3 { fill: url(#linear-gradient); } .cls-4, .cls-5, .cls-6, .cls-7 { stroke: #92afd7; } .cls-119, .cls-23, .cls-4, .cls-44, .cls-56, .cls-91, .cls-97, .cls-98 { stroke-linecap: round; } .cls-119, .cls-23, .cls-4, .cls-44, .cls-56, .cls-91 { stroke-linejoin: round; } .cls-4 { stroke-width: 1.24px; } .cls-5, .cls-6, .cls-7 { stroke-width: 0.95px; } .cls-6 { stroke-dasharray: 3.83 3.83; } .cls-7 { stroke-dasharray: 3.82 3.82; } .cls-22, .cls-31, .cls-55, .cls-8, .cls-89 { opacity: 0.3; } .cls-8 { fill: url(#linear-gradient-2); } .cls-10, .cls-11, .cls-12, .cls-123, .cls-124, .cls-125, .cls-126, .cls-127, .cls-19, .cls-24, .cls-25, .cls-26, .cls-27, .cls-28, .cls-29, .cls-30, .cls-32, .cls-33, .cls-40, .cls-43, .cls-48, .cls-49, .cls-57, .cls-58, .cls-78, .cls-79, .cls-80, .cls-81, .cls-82, .cls-83, .cls-9, .cls-90, .cls-92, .cls-94 { fill-rule: evenodd; } .cls-9 { fill: url(#linear-gradient-3); } .cls-10, .cls-52 { fill: #f3f1fc; } .cls-10 { opacity: 0.4; } .cls-11 { fill: url(#linear-gradient-4); } .cls-12 { fill: url(#linear-gradient-5); } .cls-13 { fill: url(#New_Gradient_Swatch_1); } .cls-14 { fill: url(#New_Gradient_Swatch_1-2); } .cls-15 { fill: url(#linear-gradient-6); } .cls-16 { fill: url(#New_Gradient_Swatch_1-3); } .cls-17 { fill: url(#New_Gradient_Swatch_1-4); } .cls-18 { fill: url(#linear-gradient-7); } .cls-19 { fill: url(#New_Gradient_Swatch_1-5); } .cls-20 { fill: url(#linear-gradient-8); } .cls-21 { fill: url(#linear-gradient-9); } .cls-22 { fill: url(#linear-gradient-10); } .cls-23, .cls-56, .cls-91 { stroke: #7e77a4; } .cls-23, .cls-44 { stroke-width: 5.94px; } .cls-24 { fill: url(#linear-gradient-11); } .cls-25 { fill: url(#linear-gradient-12); } .cls-26 { fill: url(#linear-gradient-13); } .cls-27 { fill: url(#linear-gradient-14); } .cls-28 { fill: #ada8cb; } .cls-29 { fill: #7e77a4; } .cls-30 { fill: #5f5789; } .cls-31 { fill: url(#linear-gradient-15); } .cls-32 { fill: url(#linear-gradient-16); } .cls-33 { fill: url(#linear-gradient-17); } .cls-34 { fill: url(#New_Gradient_Swatch_1-6); } .cls-35 { fill: url(#New_Gradient_Swatch_1-7); } .cls-36 { fill: url(#linear-gradient-18); } .cls-37 { fill: url(#New_Gradient_Swatch_1-8); } .cls-38 { fill: url(#New_Gradient_Swatch_1-9); } .cls-39 { fill: url(#linear-gradient-19); } .cls-40 { fill: url(#New_Gradient_Swatch_1-10); } .cls-41 { fill: url(#linear-gradient-20); } .cls-42 { fill: url(#linear-gradient-21); } .cls-43, .cls-49 { opacity: 0.1; } .cls-43 { fill: url(#linear-gradient-22); } .cls-44 { stroke: #6d6598; } .cls-45 { fill: #564f81; } .cls-46 { fill: url(#linear-gradient-23); } .cls-47 { fill: url(#linear-gradient-24); } .cls-48 { fill: url(#linear-gradient-25); } .cls-162, .cls-49, .cls-73 { fill: #fff; } .cls-50 { fill: url(#linear-gradient-26); } .cls-51 { fill: url(#linear-gradient-27); } .cls-53 { fill: url(#linear-gradient-28); } .cls-54 { fill: url(#linear-gradient-29); } .cls-55 { fill: url(#linear-gradient-30); } .cls-56 { stroke-width: 5.4px; } .cls-57 { fill: url(#linear-gradient-31); } .cls-58 { fill: url(#linear-gradient-32); } .cls-59 { fill: #f2f0f8; } .cls-60 { fill: url(#linear-gradient-33); } .cls-61 { fill: url(#linear-gradient-34); } .cls-62 { fill: url(#linear-gradient-35); } .cls-63 { fill: url(#linear-gradient-36); } .cls-64 { fill: url(#linear-gradient-37); } .cls-65 { fill: url(#linear-gradient-38); } .cls-66 { fill: url(#linear-gradient-39); } .cls-67 { fill: url(#linear-gradient-40); } .cls-68 { fill: url(#linear-gradient-41); } .cls-69 { fill: url(#linear-gradient-42); } .cls-70 { fill: url(#linear-gradient-43); } .cls-71 { fill: url(#linear-gradient-44); } .cls-72 { clip-path: url(#clip-path); } .cls-73 { mix-blend-mode: overlay; } .cls-74 { fill: #fecda6; } .cls-75 { fill: url(#linear-gradient-45); } .cls-76 { fill: url(#linear-gradient-46); } .cls-77 { fill: url(#linear-gradient-47); } .cls-78 { fill: url(#linear-gradient-48); } .cls-79 { fill: url(#linear-gradient-49); } .cls-80 { fill: url(#linear-gradient-50); } .cls-81 { fill: url(#linear-gradient-51); } .cls-82 { fill: url(#linear-gradient-52); } .cls-83 { fill: url(#linear-gradient-53); } .cls-84 { fill: url(#linear-gradient-54); } .cls-85 { fill: url(#linear-gradient-55); } .cls-86 { fill: url(#linear-gradient-56); } .cls-87 { fill: url(#linear-gradient-57); } .cls-88 { clip-path: url(#clip-path-2); } .cls-89 { fill: url(#linear-gradient-58); } .cls-90 { fill: url(#linear-gradient-59); } .cls-91 { stroke-width: 5.69px; } .cls-92 { fill: url(#linear-gradient-60); } .cls-93 { fill: url(#linear-gradient-61); } .cls-94 { fill: url(#linear-gradient-62); } .cls-95 { fill: url(#linear-gradient-63); } .cls-96 { fill: url(#linear-gradient-64); } .cls-103, .cls-97, .cls-98 { stroke-miterlimit: 10; } .cls-97, .cls-98 { stroke-width: 1.02px; } .cls-97 { stroke: url(#linear-gradient-65); } .cls-98 { stroke: url(#linear-gradient-66); } .cls-99 { fill: url(#linear-gradient-67); } .cls-100 { fill: url(#linear-gradient-68); } .cls-101 { fill: url(#linear-gradient-69); } .cls-102 { fill: url(#linear-gradient-70); } .cls-103 { stroke-width: 0.75px; stroke: url(#linear-gradient-71); } .cls-104 { fill: url(#linear-gradient-72); } .cls-105 { fill: url(#linear-gradient-73); } .cls-106 { fill: url(#linear-gradient-74); } .cls-107 { fill: #8e88b0; } .cls-108 { fill: #292541; } .cls-109 { fill: url(#linear-gradient-75); } .cls-110 { fill: url(#linear-gradient-76); } .cls-111 { fill: url(#linear-gradient-77); } .cls-112 { fill: url(#linear-gradient-78); } .cls-113 { fill: #fec197; } .cls-114 { fill: url(#linear-gradient-79); } .cls-115 { fill: url(#linear-gradient-80); } .cls-116 { fill: url(#linear-gradient-81); } .cls-117 { fill: url(#linear-gradient-82); } .cls-118 { fill: url(#linear-gradient-83); } .cls-119 { stroke-width: 1.37px; stroke: url(#linear-gradient-84); } .cls-120 { fill: url(#linear-gradient-85); } .cls-121 { fill: url(#linear-gradient-86); } .cls-122 { fill: url(#linear-gradient-87); } .cls-123 { fill: url(#linear-gradient-88); } .cls-124 { fill: url(#linear-gradient-89); } .cls-125 { fill: url(#linear-gradient-90); } .cls-126 { fill: url(#linear-gradient-91); } .cls-127 { fill: url(#linear-gradient-92); } .cls-128 { fill: url(#linear-gradient-93); } .cls-129 { clip-path: url(#clip-path-3); } .cls-130 { fill: url(#linear-gradient-94); } .cls-131 { fill: url(#linear-gradient-95); } .cls-132 { fill: url(#linear-gradient-96); } .cls-133 { fill: url(#linear-gradient-97); } .cls-134 { fill: url(#linear-gradient-98); } .cls-135 { fill: url(#linear-gradient-99); } .cls-136 { fill: url(#linear-gradient-100); } .cls-137 { fill: url(#linear-gradient-101); } .cls-138 { fill: url(#linear-gradient-102); } .cls-139 { fill: url(#linear-gradient-103); } .cls-140 { fill: url(#linear-gradient-104); } .cls-141 { fill: url(#linear-gradient-105); } .cls-142 { fill: url(#linear-gradient-106); } .cls-143 { fill: url(#linear-gradient-107); } .cls-144 { fill: url(#linear-gradient-108); } .cls-145 { fill: url(#linear-gradient-109); } .cls-146 { fill: url(#linear-gradient-110); } .cls-147 { fill: url(#linear-gradient-111); } .cls-148 { fill: url(#linear-gradient-112); } .cls-149 { fill: url(#linear-gradient-113); } .cls-150 { fill: url(#linear-gradient-114); } .cls-151 { fill: url(#linear-gradient-115); } .cls-152 { fill: url(#linear-gradient-116); } .cls-153 { fill: url(#linear-gradient-117); } .cls-154 { fill: url(#linear-gradient-118); } .cls-155 { fill: url(#linear-gradient-119); } .cls-156 { fill: url(#linear-gradient-120); } .cls-157 { fill: url(#linear-gradient-121); } .cls-158 { fill: url(#linear-gradient-122); } .cls-159 { fill: url(#linear-gradient-123); } .cls-160 { fill: url(#linear-gradient-124); } .cls-161 { fill: url(#linear-gradient-125); } .cls-163 { fill: url(#linear-gradient-126); } .cls-164 { fill: url(#linear-gradient-127); } .cls-165 { fill: url(#linear-gradient-128); } .cls-166 { fill: url(#linear-gradient-129); } .cls-167 { fill: url(#linear-gradient-130); } .cls-168 { fill: url(#linear-gradient-131); } .cls-169 { fill: url(#linear-gradient-132); } .cls-170 { fill: url(#linear-gradient-133); } .cls-171 { fill: url(#linear-gradient-134); } .cls-172 { fill: url(#linear-gradient-135); } .cls-173 { fill: url(#linear-gradient-136); } .cls-174 { fill: url(#linear-gradient-137); } .cls-175 { fill: url(#linear-gradient-138); } .cls-176 { fill: url(#linear-gradient-139); } .cls-177 { fill: url(#linear-gradient-140); } .cls-178 { fill: url(#linear-gradient-141); } .cls-179 { fill: url(#linear-gradient-142); } </style><linearGradient id="linear-gradient" x1="101.31" y1="179.81" x2="485.82" y2="502.45" gradientUnits="userSpaceOnUse"><stop offset="0" stop-color="#92afd7"/><stop offset="0.09" stop-color="#92afd7" stop-opacity="0.9"/><stop offset="0.54" stop-color="#92afd7" stop-opacity="0.42"/><stop offset="0.85" stop-color="#92afd7" stop-opacity="0.12"/><stop offset="1" stop-color="#92afd7" stop-opacity="0"/></linearGradient><linearGradient id="linear-gradient-2" x1="636.58" y1="212.07" x2="680.77" y2="212.07" gradientTransform="matrix(-1, 0, 0, 1, 1049.93, 0)" gradientUnits="userSpaceOnUse"><stop offset="0" stop-color="#292541"/><stop offset="0.25" stop-color="#2e2a46"/><stop offset="0.8" stop-color="#35304c"/></linearGradient><linearGradient id="linear-gradient-3" x1="1352.42" y1="929.01" x2="1352.42" y2="1069.06" gradientTransform="translate(1733.55 1146.72) rotate(180)" gradientUnits="userSpaceOnUse"><stop offset="0" stop-color="#bdb8d9"/><stop offset="1" stop-color="#e9e7f9"/></linearGradient><linearGradient id="linear-gradient-4" x1="1342.27" y1="138.45" x2="1342.27" y2="113.37" gradientTransform="matrix(-1, 0, 0, 1, 1733.55, 0)" xlink:href="#linear-gradient-3"/><linearGradient id="linear-gradient-5" x1="646.71" y1="127.45" x2="646.71" y2="220.42" gradientTransform="matrix(-1, 0, 0, 1, 1049.93, 0)" gradientUnits="userSpaceOnUse"><stop offset="0" stop-color="#bdb8d9"/><stop offset="1" stop-color="#9f9abc"/></linearGradient><linearGradient id="New_Gradient_Swatch_1" data-name="New Gradient Swatch 1" x1="660.46" y1="153.92" x2="678.49" y2="153.92" gradientTransform="matrix(-1, 0, 0, 1, 1049.93, 0)" gradientUnits="userSpaceOnUse"><stop offset="0" stop-color="#5b5684"/><stop offset="1" stop-color="#35304c"/></linearGradient><linearGradient id="New_Gradient_Swatch_1-2" x1="665.33" y1="149.15" x2="673.73" y2="159.17" xlink:href="#New_Gradient_Swatch_1"/><linearGradient id="linear-gradient-6" x1="667.21" y1="153.92" x2="671.75" y2="153.92" gradientTransform="matrix(-1, 0, 0, 1, 1049.93, 0)" gradientUnits="userSpaceOnUse"><stop offset="0" stop-color="#564f81"/><stop offset="1" stop-color="#2c2847"/></linearGradient><linearGradient id="New_Gradient_Swatch_1-3" x1="660.46" y1="188.12" x2="678.49" y2="188.12" xlink:href="#New_Gradient_Swatch_1"/><linearGradient id="New_Gradient_Swatch_1-4" x1="665.33" y1="183.36" x2="673.73" y2="193.37" xlink:href="#New_Gradient_Swatch_1"/><linearGradient id="linear-gradient-7" x1="667.21" y1="188.12" x2="671.75" y2="188.12" xlink:href="#linear-gradient-6"/><linearGradient id="New_Gradient_Swatch_1-5" x1="-121.44" y1="132.9" x2="-127.41" y2="137.91" gradientTransform="translate(533.82)" xlink:href="#New_Gradient_Swatch_1"/><linearGradient id="linear-gradient-8" x1="652.63" y1="210.31" x2="646.77" y2="210.31" xlink:href="#linear-gradient-6"/><linearGradient id="linear-gradient-9" x1="-208.07" y1="210.95" x2="-203.53" y2="210.95" gradientTransform="translate(607.34)" xlink:href="#linear-gradient-6"/><linearGradient id="linear-gradient-10" x1="88.25" y1="273.63" x2="324.79" y2="273.63" gradientTransform="matrix(1, 0, 0, 1, 0, 0)" xlink:href="#linear-gradient-2"/><linearGradient id="linear-gradient-11" x1="206.33" y1="1014.73" x2="206.33" y2="912.77" gradientTransform="matrix(1, 0, 0, -1, 0, 1146.72)" xlink:href="#linear-gradient-3"/><linearGradient id="linear-gradient-12" x1="323.94" y1="908.7" x2="147.22" y2="939.86" gradientTransform="matrix(1, 0, 0, -1, 0, 1146.72)" xlink:href="#linear-gradient-5"/><linearGradient id="linear-gradient-13" x1="143.97" y1="897.59" x2="233.04" y2="897.59" gradientTransform="matrix(1, 0, 0, -1, 0, 1146.72)" gradientUnits="userSpaceOnUse"><stop offset="0" stop-color="#dddaf1"/><stop offset="1" stop-color="#dddaf1"/></linearGradient><linearGradient id="linear-gradient-14" x1="327.19" y1="950.96" x2="238.12" y2="950.96" xlink:href="#linear-gradient-13"/><linearGradient id="linear-gradient-15" x1="26.57" y1="355.17" x2="70.76" y2="355.17" gradientTransform="matrix(1, 0, 0, 1, 0, 0)" xlink:href="#linear-gradient-2"/><linearGradient id="linear-gradient-16" x1="742.41" y1="785.9" x2="742.41" y2="925.96" gradientTransform="matrix(1, 0, 0, -1, -683.62, 1146.72)" xlink:href="#linear-gradient-3"/><linearGradient id="linear-gradient-17" x1="732.26" y1="281.55" x2="732.26" y2="256.48" gradientTransform="translate(-683.62)" xlink:href="#linear-gradient-3"/><linearGradient id="New_Gradient_Swatch_1-6" x1="50.45" y1="297.02" x2="68.48" y2="297.02" gradientTransform="matrix(1, 0, 0, 1, 0, 0)" xlink:href="#New_Gradient_Swatch_1"/><linearGradient id="New_Gradient_Swatch_1-7" x1="55.32" y1="292.26" x2="63.72" y2="302.27" gradientTransform="matrix(1, 0, 0, 1, 0, 0)" xlink:href="#New_Gradient_Swatch_1"/><linearGradient id="linear-gradient-18" x1="57.2" y1="297.02" x2="61.74" y2="297.02" gradientTransform="matrix(1, 0, 0, 1, 0, 0)" xlink:href="#linear-gradient-6"/><linearGradient id="New_Gradient_Swatch_1-8" x1="50.45" y1="331.22" x2="68.48" y2="331.22" gradientTransform="matrix(1, 0, 0, 1, 0, 0)" xlink:href="#New_Gradient_Swatch_1"/><linearGradient id="New_Gradient_Swatch_1-9" x1="55.32" y1="326.46" x2="63.72" y2="336.47" gradientTransform="matrix(1, 0, 0, 1, 0, 0)" xlink:href="#New_Gradient_Swatch_1"/><linearGradient id="linear-gradient-19" x1="57.2" y1="331.22" x2="61.74" y2="331.22" gradientTransform="matrix(1, 0, 0, 1, 0, 0)" xlink:href="#linear-gradient-6"/><linearGradient id="New_Gradient_Swatch_1-10" x1="488.57" y1="276.01" x2="482.6" y2="281.02" gradientTransform="matrix(-1, 0, 0, 1, 516.11, 0)" xlink:href="#New_Gradient_Swatch_1"/><linearGradient id="linear-gradient-20" x1="42.62" y1="353.41" x2="36.76" y2="353.41" gradientTransform="matrix(1, 0, 0, 1, 0, 0)" xlink:href="#linear-gradient-6"/><linearGradient id="linear-gradient-21" x1="401.94" y1="354.05" x2="406.48" y2="354.05" gradientTransform="matrix(-1, 0, 0, 1, 442.6, 0)" xlink:href="#linear-gradient-6"/><linearGradient id="linear-gradient-22" x1="209.78" y1="194.61" x2="197.73" y2="173.72" gradientUnits="userSpaceOnUse"><stop offset="0" stop-color="#292541"/><stop offset="0.57" stop-color="#292541" stop-opacity="0.39"/><stop offset="1" stop-color="#292541" stop-opacity="0"/></linearGradient><linearGradient id="linear-gradient-23" x1="104.79" y1="987.02" x2="132.1" y2="991.35" gradientTransform="matrix(1, 0, 0, -1, 0, 1146.72)" xlink:href="#linear-gradient-6"/><linearGradient id="linear-gradient-24" x1="265.39" y1="1138.07" x2="129.15" y2="909.38" gradientTransform="matrix(1, 0, 0, -1, 0, 1146.72)" gradientUnits="userSpaceOnUse"><stop offset="0" stop-color="#342e53"/><stop offset="0.37" stop-color="#2d2948"/><stop offset="0.81" stop-color="#292541"/></linearGradient><linearGradient id="linear-gradient-25" x1="302.66" y1="1136.37" x2="144.03" y2="973.19" gradientTransform="matrix(1, 0, 0, -1, 0, 1146.72)" gradientUnits="userSpaceOnUse"><stop offset="0" stop-color="#f47523"/><stop offset="0.04" stop-color="#f47125"/><stop offset="0.42" stop-color="#f15633"/><stop offset="0.75" stop-color="#f0463c"/><stop offset="1" stop-color="#ef403f"/></linearGradient><linearGradient id="linear-gradient-26" x1="716.46" y1="422.84" x2="721.92" y2="422.84" gradientTransform="matrix(-1, 0, 0, 1, 976.32, 0)" gradientUnits="userSpaceOnUse"><stop offset="0" stop-color="#f47523"/><stop offset="0.25" stop-color="#f36f26"/><stop offset="0.58" stop-color="#f25f2f"/><stop offset="0.95" stop-color="#ef443d"/><stop offset="1" stop-color="#ef403f"/></linearGradient><linearGradient id="linear-gradient-27" x1="721.2" y1="423.6" x2="734.58" y2="423.6" xlink:href="#linear-gradient-26"/><linearGradient id="linear-gradient-28" x1="721.77" y1="415.86" x2="733.97" y2="415.86" gradientTransform="matrix(-1, 0, 0, 1, 976.32, 0)" gradientUnits="userSpaceOnUse"><stop offset="0" stop-color="#e7e5f3"/><stop offset="0.18" stop-color="#e2dfef"/><stop offset="0.42" stop-color="#d2cfe2"/><stop offset="0.69" stop-color="#b8b4ce"/><stop offset="0.98" stop-color="#958fb2"/><stop offset="1" stop-color="#928cb0"/></linearGradient><linearGradient id="linear-gradient-29" x1="722.67" y1="417.55" x2="733.08" y2="417.55" gradientTransform="matrix(-1, 0, 0, 1, 976.32, 0)" xlink:href="#New_Gradient_Swatch_1"/><linearGradient id="linear-gradient-30" x1="90.48" y1="450.35" x2="228.34" y2="450.35" gradientTransform="matrix(1, 0, 0, 1, 0, 0)" xlink:href="#linear-gradient-2"/><linearGradient id="linear-gradient-31" x1="519.66" y1="766.28" x2="539.73" y2="801.05" gradientTransform="translate(659.85 1146.72) rotate(180)" gradientUnits="userSpaceOnUse"><stop offset="0" stop-color="#ada8cb"/><stop offset="1" stop-color="#e4e3ee"/></linearGradient><linearGradient id="linear-gradient-32" x1="511.45" y1="733.4" x2="428.82" y2="781.92" gradientTransform="translate(659.85 1146.72) rotate(180)" gradientUnits="userSpaceOnUse"><stop offset="0" stop-color="#bdb8d9"/><stop offset="1" stop-color="#f1effd"/></linearGradient><linearGradient id="linear-gradient-33" x1="735.91" y1="363.25" x2="745.13" y2="347.28" gradientTransform="translate(-554.12)" gradientUnits="userSpaceOnUse"><stop offset="0" stop-color="#3f3960"/><stop offset="0.84" stop-color="#2f2a4b"/></linearGradient><linearGradient id="linear-gradient-34" x1="725.1" y1="354.88" x2="757.54" y2="354.88" gradientTransform="translate(-554.12)" xlink:href="#linear-gradient-28"/><linearGradient id="linear-gradient-35" x1="703.66" y1="380.57" x2="756.11" y2="380.57" gradientTransform="translate(-554.12)" xlink:href="#linear-gradient-28"/><linearGradient id="linear-gradient-36" x1="726.35" y1="361.22" x2="731.98" y2="361.22" gradientTransform="translate(-554.12)" gradientUnits="userSpaceOnUse"><stop offset="0" stop-color="#5b5684"/><stop offset="0.06" stop-color="#55507c"/><stop offset="0.23" stop-color="#474267"/><stop offset="0.42" stop-color="#3d3858"/><stop offset="0.65" stop-color="#37324f"/><stop offset="1" stop-color="#35304c"/></linearGradient><linearGradient id="linear-gradient-37" x1="748.48" y1="374.11" x2="754.11" y2="374.11" xlink:href="#linear-gradient-36"/><linearGradient id="linear-gradient-38" x1="729.16" y1="362.53" x2="729.16" y2="359.23" gradientTransform="translate(-554.12)" gradientUnits="userSpaceOnUse"><stop offset="0" stop-color="#5b5684"/><stop offset="0.41" stop-color="#595482"/><stop offset="0.62" stop-color="#544f7a"/><stop offset="0.78" stop-color="#4b466d"/><stop offset="0.92" stop-color="#3e395a"/><stop offset="1" stop-color="#35304c"/></linearGradient><linearGradient id="linear-gradient-39" x1="751.3" y1="375.42" x2="751.3" y2="372.12" xlink:href="#linear-gradient-38"/><linearGradient id="linear-gradient-40" x1="715.28" y1="375.47" x2="730.37" y2="375.47" gradientTransform="translate(-554.12)" xlink:href="#linear-gradient-28"/><linearGradient id="linear-gradient-41" x1="717.37" y1="376.67" x2="730.2" y2="376.67" gradientTransform="translate(-554.12)" xlink:href="#New_Gradient_Swatch_1"/><linearGradient id="linear-gradient-42" x1="715.45" y1="378.11" x2="726.85" y2="378.11" gradientTransform="translate(-554.12)" xlink:href="#New_Gradient_Swatch_1"/><linearGradient id="linear-gradient-43" x1="751.29" y1="378.1" x2="715.45" y2="365.06" gradientTransform="translate(-554.12)" gradientUnits="userSpaceOnUse"><stop offset="0" stop-color="#bdbad2"/><stop offset="0.63" stop-color="#a39ebd"/><stop offset="1" stop-color="#928cb0"/></linearGradient><linearGradient id="linear-gradient-44" x1="726.32" y1="358.81" x2="740.52" y2="383.4" gradientTransform="translate(-554.12)" gradientUnits="userSpaceOnUse"><stop offset="0" stop-color="#bdb8d9"/><stop offset="1" stop-color="#e4e0f4"/></linearGradient><clipPath id="clip-path"><path class="cls-1" d="M200.59,372.34l0-10.31,0-8.86a.53.53,0,0,0,0-.22.56.56,0,0,0-.24-.28l-18.79-10.88-4.83-2.8-3.93-2.27a.33.33,0,0,0-.5.29V357.4a.57.57,0,0,0,.29.49l9.72,5.61,7.89,4.56,10,5.75a.33.33,0,0,0,.5-.29Z"/></clipPath><linearGradient id="linear-gradient-45" x1="753.3" y1="71.3" x2="753.3" y2="120.93" gradientTransform="translate(-599.12 541.72) rotate(-20.71)" gradientUnits="userSpaceOnUse"><stop offset="0" stop-color="#f47523"/><stop offset="0.32" stop-color="#f25f2f"/><stop offset="0.74" stop-color="#f0483b"/><stop offset="1" stop-color="#ef403f"/></linearGradient><linearGradient id="linear-gradient-46" x1="172.65" y1="322.54" x2="172.65" y2="392.61" gradientTransform="translate(-48.68 28.57) rotate(-4.47)" gradientUnits="userSpaceOnUse"><stop offset="0" stop-color="#ef3f3f"/><stop offset="0.29" stop-color="#ef433d"/><stop offset="0.54" stop-color="#f04d38"/><stop offset="0.79" stop-color="#f25f2f"/><stop offset="1" stop-color="#f47623"/></linearGradient><linearGradient id="linear-gradient-47" x1="84.23" y1="400.3" x2="74.13" y2="364.26" gradientTransform="matrix(0.96, 0.27, -0.27, 0.96, 177.78, -58.24)" gradientUnits="userSpaceOnUse"><stop offset="0" stop-color="#564f81"/><stop offset="0.09" stop-color="#47416c"/><stop offset="0.19" stop-color="#3b365b"/><stop offset="0.32" stop-color="#322e50"/><stop offset="0.5" stop-color="#2d2949"/><stop offset="1" stop-color="#2c2847"/></linearGradient><linearGradient id="linear-gradient-48" x1="187.2" y1="369.73" x2="150.52" y2="369.73" gradientTransform="matrix(1, 0, 0, 1, 0, 0)" xlink:href="#linear-gradient-46"/><linearGradient id="linear-gradient-49" x1="458.06" y1="731.82" x2="478.13" y2="766.58" gradientTransform="translate(659.85 1146.72) rotate(180)" gradientUnits="userSpaceOnUse"><stop offset="0" stop-color="#ada8cb"/><stop offset="1" stop-color="#fff"/></linearGradient><linearGradient id="linear-gradient-50" x1="507.55" y1="712.25" x2="385.98" y2="712.25" gradientTransform="translate(659.85 1146.72) rotate(180)" gradientUnits="userSpaceOnUse"><stop offset="0" stop-color="#e3e1ed"/><stop offset="1" stop-color="#ada8cb"/></linearGradient><linearGradient id="linear-gradient-51" x1="524.15" y1="760.65" x2="569.36" y2="682.33" gradientTransform="translate(659.85 1146.72) rotate(180)" gradientUnits="userSpaceOnUse"><stop offset="0" stop-color="#fff"/><stop offset="1" stop-color="#ada8cb"/></linearGradient><linearGradient id="linear-gradient-52" x1="530.68" y1="789.5" x2="530.68" y2="738.84" gradientTransform="translate(659.85 1146.72) rotate(180)" gradientUnits="userSpaceOnUse"><stop offset="0" stop-color="#e8e7f0"/><stop offset="1" stop-color="#c4c0d9"/></linearGradient><linearGradient id="linear-gradient-53" x1="494.65" y1="754.17" x2="494.65" y2="684.55" gradientTransform="translate(659.85 1146.72) rotate(180)" gradientUnits="userSpaceOnUse"><stop offset="0" stop-color="#f5f4f9"/><stop offset="1" stop-color="#ada8cb"/></linearGradient><linearGradient id="linear-gradient-54" x1="-39.47" y1="373.06" x2="-27.45" y2="373.06" gradientTransform="translate(247.72)" gradientUnits="userSpaceOnUse"><stop offset="0" stop-color="#ed7427"/><stop offset="0.26" stop-color="#ec6e2a"/><stop offset="0.6" stop-color="#ea5e32"/><stop offset="0.97" stop-color="#e74340"/><stop offset="1" stop-color="#e74141"/></linearGradient><linearGradient id="linear-gradient-55" x1="-39.02" y1="370.5" x2="-36.72" y2="370.5" gradientTransform="translate(247.72)" gradientUnits="userSpaceOnUse"><stop offset="0" stop-color="#5b5683"/><stop offset="1" stop-color="#35304c"/></linearGradient><linearGradient id="linear-gradient-56" x1="-29.47" y1="375.82" x2="-27.88" y2="375.82" xlink:href="#linear-gradient-55"/><linearGradient id="linear-gradient-57" x1="-41.04" y1="375.29" x2="-25.21" y2="375.29" gradientTransform="translate(247.72)" gradientUnits="userSpaceOnUse"><stop offset="0" stop-color="#e6e4f2"/><stop offset="0.18" stop-color="#e1deee"/><stop offset="0.42" stop-color="#d1cee1"/><stop offset="0.69" stop-color="#b7b3cd"/><stop offset="0.98" stop-color="#948eb1"/><stop offset="1" stop-color="#918baf"/></linearGradient><clipPath id="clip-path-2"><polygon class="cls-1" points="213.02 369.58 210.68 370.93 208.25 372.34 215.49 376.55 217.93 375.14 220.27 373.79 213.02 369.58"/></clipPath><linearGradient id="linear-gradient-58" x1="301.48" y1="393.81" x2="569" y2="393.81" gradientTransform="matrix(1, 0, 0, 1, 0, 0)" xlink:href="#linear-gradient-2"/><linearGradient id="linear-gradient-59" x1="472.94" y1="769.14" x2="303.54" y2="868.55" gradientTransform="matrix(1, 0, 0, -1, 0, 1146.72)" gradientUnits="userSpaceOnUse"><stop offset="0" stop-color="#e3e0f3"/><stop offset="1" stop-color="#f1effd"/></linearGradient><linearGradient id="linear-gradient-60" x1="504.91" y1="869.32" x2="484.32" y2="830.19" gradientTransform="matrix(1, 0, 0, -1, 0, 1146.72)" gradientUnits="userSpaceOnUse"><stop offset="0" stop-color="#dddaf1"/><stop offset="0.16" stop-color="#cecae5"/><stop offset="0.43" stop-color="#bcb7d7"/><stop offset="0.71" stop-color="#b1acce"/><stop offset="1" stop-color="#ada8cb"/></linearGradient><linearGradient id="linear-gradient-61" x1="1169.77" y1="273.11" x2="1169.77" y2="245.16" gradientTransform="matrix(-0.99, -0.12, -0.12, 0.99, 1687.62, 118.29)" xlink:href="#linear-gradient-47"/><linearGradient id="linear-gradient-62" x1="328.91" y1="706.05" x2="344.74" y2="771.99" gradientTransform="matrix(1, 0, 0, -1, 0, 1146.72)" gradientUnits="userSpaceOnUse"><stop offset="0" stop-color="#e9e7f9"/><stop offset="1" stop-color="#cecae5"/></linearGradient><linearGradient id="linear-gradient-63" x1="448.15" y1="275.44" x2="463.93" y2="275.44" gradientUnits="userSpaceOnUse"><stop offset="0" stop-color="#dddaf1"/><stop offset="1" stop-color="#ada8cb"/></linearGradient><linearGradient id="linear-gradient-64" x1="446.09" y1="275.99" x2="462.93" y2="275.99" gradientUnits="userSpaceOnUse"><stop offset="0" stop-color="#f47523"/><stop offset="0.03" stop-color="#f47125"/><stop offset="0.28" stop-color="#f15633"/><stop offset="0.5" stop-color="#f0463c"/><stop offset="0.67" stop-color="#ef403f"/></linearGradient><linearGradient id="linear-gradient-65" x1="448.14" y1="274.7" x2="449.9" y2="274.7" xlink:href="#linear-gradient-63"/><linearGradient id="linear-gradient-66" x1="449.91" y1="275.89" x2="451.68" y2="275.89" xlink:href="#linear-gradient-63"/><linearGradient id="linear-gradient-67" x1="492.18" y1="293.88" x2="443.89" y2="293.88" gradientTransform="matrix(1, 0, 0, 1, 0, 0)" xlink:href="#linear-gradient-47"/><linearGradient id="linear-gradient-68" x1="434.56" y1="278.25" x2="470.22" y2="308.17" gradientTransform="matrix(1, 0, 0, 1, 0, 0)" xlink:href="#linear-gradient-6"/><linearGradient id="linear-gradient-69" x1="463.52" y1="295.41" x2="452.2" y2="275.81" gradientUnits="userSpaceOnUse"><stop offset="0" stop-color="#8c86ad"/><stop offset="1" stop-color="#e9e7f9"/></linearGradient><linearGradient id="linear-gradient-70" x1="460.33" y1="290.5" x2="453.35" y2="272.3" xlink:href="#linear-gradient-69"/><linearGradient id="linear-gradient-71" x1="468.69" y1="288.24" x2="444.99" y2="274.56" gradientUnits="userSpaceOnUse"><stop offset="0" stop-color="#c2bed9"/><stop offset="1" stop-color="#e9e7f9"/></linearGradient><linearGradient id="linear-gradient-72" x1="507.61" y1="267.03" x2="515.6" y2="267.03" xlink:href="#linear-gradient-64"/><linearGradient id="linear-gradient-73" x1="1138.05" y1="257.16" x2="1138.05" y2="332.1" gradientTransform="matrix(-1, 0, 0, 1, 1626.5, 0)" xlink:href="#linear-gradient-64"/><linearGradient id="linear-gradient-74" x1="1122.78" y1="260.29" x2="1138.24" y2="260.29" gradientTransform="matrix(-1, 0, 0, 1, 1626.5, 0)" gradientUnits="userSpaceOnUse"><stop offset="0" stop-color="#e7e5f3"/><stop offset="0.23" stop-color="#e2dfef"/><stop offset="0.53" stop-color="#d2cfe3"/><stop offset="0.86" stop-color="#b8b4cf"/><stop offset="1" stop-color="#aca7c5"/></linearGradient><linearGradient id="linear-gradient-75" x1="434.64" y1="828.94" x2="366.25" y2="774.87" gradientTransform="matrix(1, 0, 0, -1, 0, 1146.72)" xlink:href="#linear-gradient-6"/><linearGradient id="linear-gradient-76" x1="416.33" y1="825.66" x2="347.95" y2="771.59" gradientTransform="matrix(1, 0, 0, -1, 0, 1146.72)" xlink:href="#linear-gradient-6"/><linearGradient id="linear-gradient-77" x1="407.51" y1="800.12" x2="371.58" y2="809.9" gradientTransform="matrix(1, 0, 0, -1, 0, 1146.72)" gradientUnits="userSpaceOnUse"><stop offset="0" stop-color="#ef3f3f"/><stop offset="1" stop-color="#f47623"/></linearGradient><linearGradient id="linear-gradient-78" x1="422.73" y1="770.01" x2="408.88" y2="813.32" xlink:href="#linear-gradient-77"/><linearGradient id="linear-gradient-79" x1="411.15" y1="331.48" x2="422.42" y2="267.55" gradientTransform="matrix(1, 0, 0, 1, 0, 0)" xlink:href="#linear-gradient-47"/><linearGradient id="linear-gradient-80" x1="392.58" y1="324.89" x2="414.39" y2="346.11" gradientTransform="matrix(1, 0, 0, 1, 0, 0)" xlink:href="#linear-gradient-77"/><linearGradient id="linear-gradient-81" x1="322.17" y1="338.2" x2="322.17" y2="356.29" gradientTransform="translate(75.15 -56.89) rotate(6.29)" gradientUnits="userSpaceOnUse"><stop offset="0" stop-color="#ef3f3f"/><stop offset="0.41" stop-color="#ef413e"/><stop offset="0.62" stop-color="#f0493a"/><stop offset="0.79" stop-color="#f15633"/><stop offset="0.93" stop-color="#f3692a"/><stop offset="1" stop-color="#f47623"/></linearGradient><linearGradient id="linear-gradient-82" x1="315.49" y1="339.1" x2="328.79" y2="339.1" gradientTransform="translate(75.15 -56.89) rotate(6.29)" gradientUnits="userSpaceOnUse"><stop offset="0" stop-color="#d4d0ea"/><stop offset="1" stop-color="#ada8cb"/></linearGradient><linearGradient id="linear-gradient-83" x1="320.66" y1="332.35" x2="323.62" y2="340.47" gradientTransform="translate(75.15 -56.89) rotate(6.29)" gradientUnits="userSpaceOnUse"><stop offset="0" stop-color="#fff"/><stop offset="1" stop-color="#cdcadf"/></linearGradient><linearGradient id="linear-gradient-84" x1="362.79" y1="313.83" x2="362.79" y2="303.11" gradientUnits="userSpaceOnUse"><stop offset="0" stop-color="#fff"/><stop offset="0.26" stop-color="#fafafc"/><stop offset="0.56" stop-color="#edecf3"/><stop offset="0.89" stop-color="#d6d4e5"/><stop offset="1" stop-color="#cdcadf"/></linearGradient><linearGradient id="linear-gradient-85" x1="670.64" y1="312.9" x2="687.56" y2="312.9" gradientTransform="matrix(-1, 0, 0, 1, 1055.39, 0)" gradientUnits="userSpaceOnUse"><stop offset="0" stop-color="#fff"/><stop offset="1" stop-color="#bfbbd6"/></linearGradient><linearGradient id="linear-gradient-86" x1="682.07" y1="304.2" x2="682.07" y2="275.56" gradientTransform="matrix(-1, 0, 0, 1, 1055.39, 0)" xlink:href="#linear-gradient-64"/><linearGradient id="linear-gradient-87" x1="1372.77" y1="308.64" x2="1372.77" y2="391.22" gradientTransform="matrix(-1, 0, 0, 1, 1748.47, 0)" gradientUnits="userSpaceOnUse"><stop offset="0" stop-color="#fff"/><stop offset="0.06" stop-color="#f8f8fb"/><stop offset="0.3" stop-color="#e0dfec"/><stop offset="0.52" stop-color="#d2cfe3"/><stop offset="0.7" stop-color="#cdcae0"/></linearGradient><linearGradient id="linear-gradient-88" x1="341.59" y1="778.39" x2="321" y2="739.26" gradientTransform="matrix(1, 0, 0, -1, 0, 1146.72)" xlink:href="#linear-gradient-63"/><linearGradient id="linear-gradient-89" x1="327.05" y1="751.92" x2="345.38" y2="802.27" gradientTransform="matrix(1, 0, 0, -1, 0, 1146.72)" xlink:href="#linear-gradient-46"/><linearGradient id="linear-gradient-90" x1="383.4" y1="797.16" x2="678.33" y2="797.16" gradientTransform="matrix(1, 0, 0, -1, 0, 1146.72)" xlink:href="#linear-gradient-51"/><linearGradient id="linear-gradient-91" x1="503.52" y1="819.79" x2="384.81" y2="889.49" gradientTransform="matrix(1, 0, 0, -1, 0, 1146.72)" xlink:href="#linear-gradient-32"/><linearGradient id="linear-gradient-92" x1="361.31" y1="711.81" x2="377.14" y2="777.74" gradientTransform="matrix(1, 0, 0, -1, 0, 1146.72)" gradientUnits="userSpaceOnUse"><stop offset="0" stop-color="#e9e7f9"/><stop offset="0.06" stop-color="#e3e1f5"/><stop offset="0.25" stop-color="#d7d4ec"/><stop offset="0.49" stop-color="#d0cce7"/><stop offset="1" stop-color="#cecae5"/></linearGradient><linearGradient id="linear-gradient-93" x1="450.71" y1="289.38" x2="492.21" y2="289.38" gradientTransform="matrix(1, 0, 0, 1, 0, 0)" xlink:href="#linear-gradient-77"/><clipPath id="clip-path-3"><path class="cls-1" d="M456.84,272.87c6.07,0,11.48,2.27,13.45,5.64a5.28,5.28,0,0,1-.66,6.39c-1.67,2-4.56,3.52-8.16,4.24a23.44,23.44,0,0,1-4.64.46c-6.07,0-11.47-2.27-13.45-5.64-2.55-4.36,1.4-9.13,8.82-10.63A23.35,23.35,0,0,1,456.84,272.87Z"/></clipPath><linearGradient id="linear-gradient-94" x1="445.45" y1="286.46" x2="448.28" y2="286.46" gradientTransform="matrix(1, 0, 0, 1, 0, 0)" xlink:href="#linear-gradient-32"/><linearGradient id="linear-gradient-95" x1="448.41" y1="286.68" x2="451.19" y2="286.68" gradientTransform="matrix(1, 0, 0, 1, 0, 0)" xlink:href="#linear-gradient-32"/><linearGradient id="linear-gradient-96" x1="457.24" y1="286.67" x2="460.06" y2="286.67" gradientTransform="matrix(1, 0, 0, 1, 0, 0)" xlink:href="#linear-gradient-32"/><linearGradient id="linear-gradient-97" x1="452.03" y1="286.86" x2="454.67" y2="286.86" gradientTransform="matrix(1, 0, 0, 1, 0, 0)" xlink:href="#linear-gradient-32"/><linearGradient id="linear-gradient-98" x1="452.03" y1="284.64" x2="454.63" y2="284.64" gradientTransform="matrix(1, 0, 0, 1, 0, 0)" xlink:href="#linear-gradient-32"/><linearGradient id="linear-gradient-99" x1="447.22" y1="283.86" x2="450" y2="283.86" gradientTransform="matrix(1, 0, 0, 1, 0, 0)" xlink:href="#linear-gradient-32"/><linearGradient id="linear-gradient-100" x1="449.33" y1="288.43" x2="451.96" y2="288.43" gradientTransform="matrix(1, 0, 0, 1, 0, 0)" xlink:href="#linear-gradient-32"/><linearGradient id="linear-gradient-101" x1="450.22" y1="285.66" x2="452.82" y2="285.66" gradientTransform="matrix(1, 0, 0, 1, 0, 0)" xlink:href="#linear-gradient-32"/><linearGradient id="linear-gradient-102" x1="451.28" y1="284.21" x2="454.1" y2="284.21" gradientTransform="matrix(1, 0, 0, 1, 0, 0)" xlink:href="#linear-gradient-32"/><linearGradient id="linear-gradient-103" x1="450.49" y1="289.11" x2="453.27" y2="289.11" gradientTransform="matrix(1, 0, 0, 1, 0, 0)" xlink:href="#linear-gradient-32"/><linearGradient id="linear-gradient-104" x1="454.57" y1="285.62" x2="457.39" y2="285.62" gradientTransform="matrix(1, 0, 0, 1, 0, 0)" xlink:href="#linear-gradient-32"/><linearGradient id="linear-gradient-105" x1="454.7" y1="289.67" x2="457.33" y2="289.67" gradientTransform="matrix(1, 0, 0, 1, 0, 0)" xlink:href="#linear-gradient-32"/><linearGradient id="linear-gradient-106" x1="459.62" y1="288" x2="462.22" y2="288" gradientTransform="matrix(1, 0, 0, 1, 0, 0)" xlink:href="#linear-gradient-32"/><linearGradient id="linear-gradient-107" x1="461.1" y1="287.25" x2="463.88" y2="287.25" gradientTransform="matrix(1, 0, 0, 1, 0, 0)" xlink:href="#linear-gradient-32"/><linearGradient id="linear-gradient-108" x1="453.42" y1="288.57" x2="456.05" y2="288.57" gradientTransform="matrix(1, 0, 0, 1, 0, 0)" xlink:href="#linear-gradient-32"/><linearGradient id="linear-gradient-109" x1="457.4" y1="288.81" x2="460" y2="288.81" gradientTransform="matrix(1, 0, 0, 1, 0, 0)" xlink:href="#linear-gradient-32"/><linearGradient id="linear-gradient-110" x1="451.69" y1="282.03" x2="454.52" y2="282.03" gradientTransform="matrix(1, 0, 0, 1, 0, 0)" xlink:href="#linear-gradient-32"/><linearGradient id="linear-gradient-111" x1="454.65" y1="282.25" x2="457.43" y2="282.25" gradientTransform="matrix(1, 0, 0, 1, 0, 0)" xlink:href="#linear-gradient-32"/><linearGradient id="linear-gradient-112" x1="463.9" y1="282.76" x2="466.72" y2="282.76" gradientTransform="matrix(1, 0, 0, 1, 0, 0)" xlink:href="#linear-gradient-32"/><linearGradient id="linear-gradient-113" x1="458.27" y1="282.43" x2="460.91" y2="282.43" gradientTransform="matrix(1, 0, 0, 1, 0, 0)" xlink:href="#linear-gradient-32"/><linearGradient id="linear-gradient-114" x1="458.27" y1="280.21" x2="460.87" y2="280.21" gradientTransform="matrix(1, 0, 0, 1, 0, 0)" xlink:href="#linear-gradient-32"/><linearGradient id="linear-gradient-115" x1="453.46" y1="279.42" x2="456.24" y2="279.42" gradientTransform="matrix(1, 0, 0, 1, 0, 0)" xlink:href="#linear-gradient-32"/><linearGradient id="linear-gradient-116" x1="453.39" y1="284.35" x2="456.02" y2="284.35" gradientTransform="matrix(1, 0, 0, 1, 0, 0)" xlink:href="#linear-gradient-32"/><linearGradient id="linear-gradient-117" x1="456.46" y1="281.22" x2="459.06" y2="281.22" gradientTransform="matrix(1, 0, 0, 1, 0, 0)" xlink:href="#linear-gradient-32"/><linearGradient id="linear-gradient-118" x1="457.52" y1="279.78" x2="460.34" y2="279.78" gradientTransform="matrix(1, 0, 0, 1, 0, 0)" xlink:href="#linear-gradient-32"/><linearGradient id="linear-gradient-119" x1="456.73" y1="284.67" x2="459.51" y2="284.67" gradientTransform="matrix(1, 0, 0, 1, 0, 0)" xlink:href="#linear-gradient-32"/><linearGradient id="linear-gradient-120" x1="460.81" y1="281.18" x2="463.63" y2="281.18" gradientTransform="matrix(1, 0, 0, 1, 0, 0)" xlink:href="#linear-gradient-32"/><linearGradient id="linear-gradient-121" x1="460.94" y1="285.24" x2="463.57" y2="285.24" gradientTransform="matrix(1, 0, 0, 1, 0, 0)" xlink:href="#linear-gradient-32"/><linearGradient id="linear-gradient-122" x1="463.22" y1="286.76" x2="465.82" y2="286.76" gradientTransform="matrix(1, 0, 0, 1, 0, 0)" xlink:href="#linear-gradient-32"/><linearGradient id="linear-gradient-123" x1="454.93" y1="285.69" x2="457.71" y2="285.69" gradientTransform="matrix(1, 0, 0, 1, 0, 0)" xlink:href="#linear-gradient-32"/><linearGradient id="linear-gradient-124" x1="459.14" y1="286.25" x2="461.77" y2="286.25" gradientTransform="matrix(1, 0, 0, 1, 0, 0)" xlink:href="#linear-gradient-32"/><linearGradient id="linear-gradient-125" x1="464.23" y1="286.25" x2="466.83" y2="286.25" gradientTransform="matrix(1, 0, 0, 1, 0, 0)" xlink:href="#linear-gradient-32"/><linearGradient id="linear-gradient-126" x1="446.47" y1="283.72" x2="449.25" y2="283.72" gradientUnits="userSpaceOnUse"><stop offset="0" stop-color="#fff"/><stop offset="0.02" stop-color="#fefdfe"/><stop offset="0.48" stop-color="#dedcea"/></linearGradient><linearGradient id="linear-gradient-127" x1="455.3" y1="283.71" x2="458.12" y2="283.71" xlink:href="#linear-gradient-126"/><linearGradient id="linear-gradient-128" x1="450.09" y1="283.9" x2="452.72" y2="283.9" xlink:href="#linear-gradient-126"/><linearGradient id="linear-gradient-129" x1="450.08" y1="281.68" x2="452.68" y2="281.68" xlink:href="#linear-gradient-126"/><linearGradient id="linear-gradient-130" x1="448.55" y1="286.15" x2="451.33" y2="286.15" xlink:href="#linear-gradient-126"/><linearGradient id="linear-gradient-131" x1="452.63" y1="282.66" x2="455.45" y2="282.66" xlink:href="#linear-gradient-126"/><linearGradient id="linear-gradient-132" x1="452.76" y1="286.71" x2="455.39" y2="286.71" xlink:href="#linear-gradient-126"/><linearGradient id="linear-gradient-133" x1="457.85" y1="286.71" x2="460.45" y2="286.71" xlink:href="#linear-gradient-126"/><linearGradient id="linear-gradient-134" x1="452.71" y1="279.29" x2="455.49" y2="279.29" xlink:href="#linear-gradient-126"/><linearGradient id="linear-gradient-135" x1="461.54" y1="279.28" x2="464.36" y2="279.28" xlink:href="#linear-gradient-126"/><linearGradient id="linear-gradient-136" x1="456.33" y1="279.47" x2="458.96" y2="279.47" xlink:href="#linear-gradient-126"/><linearGradient id="linear-gradient-137" x1="456.32" y1="277.25" x2="458.92" y2="277.25" xlink:href="#linear-gradient-126"/><linearGradient id="linear-gradient-138" x1="454.79" y1="281.72" x2="457.57" y2="281.72" xlink:href="#linear-gradient-126"/><linearGradient id="linear-gradient-139" x1="458.87" y1="278.22" x2="461.69" y2="278.22" xlink:href="#linear-gradient-126"/><linearGradient id="linear-gradient-140" x1="459" y1="282.28" x2="461.63" y2="282.28" xlink:href="#linear-gradient-126"/><linearGradient id="linear-gradient-141" x1="463.78" y1="284.84" x2="466.38" y2="284.84" xlink:href="#linear-gradient-126"/><linearGradient id="linear-gradient-142" x1="534.88" y1="279.48" x2="585.09" y2="279.48" gradientTransform="matrix(-0.9, 0.44, 0.44, 0.9, 729.87, -154)" gradientUnits="userSpaceOnUse"><stop offset="0" stop-color="#fff"/><stop offset="1" stop-color="#cdcae0"/></linearGradient></defs><title>Audiovisual-Translation-Trends_Trend_nyito_</title><g class="cls-2"><g id="Layer_1" data-name="Layer 1"><g><path class="cls-3" d="M293.53,168.3c125.38,0,237.07,46.84,277.88,116.58,25.59,43.61,20.69,90.47-13.73,131.95s-94.23,72.6-168.44,87.58a484.1,484.1,0,0,1-95.75,9.48c-125.35,0-237-46.85-277.85-116.54-52.75-90.09,29-188.59,182.21-219.58A482.17,482.17,0,0,1,293.53,168.3Z"/><path class="cls-4" d="M293.94,168.57c125.38,0,237.07,46.84,277.88,116.58,25.59,43.61,20.69,90.47-13.73,131.95s-94.23,72.6-168.44,87.58a484.1,484.1,0,0,1-95.75,9.48c-125.35,0-237-46.85-277.85-116.54C-36.7,307.53,45,209,198.25,178A482.17,482.17,0,0,1,293.94,168.57Z"/><g><line class="cls-5" x1="94.11" y1="213.87" x2="95.76" y2="214.84"/><line class="cls-6" x1="99.07" y1="216.76" x2="508.23" y2="455.04"/><line class="cls-5" x1="509.89" y1="456" x2="511.54" y2="456.96"/></g><line class="cls-7" x1="58.34" y1="444.66" x2="488.94" y2="212.05"/><g><polygon class="cls-8" points="413.35 213.36 393.07 224.08 369.17 210.26 389.47 200.05 413.35 213.36"/><g><path class="cls-9" d="M393.07,220.42v-82L369.2,124.38v82Z"/><path class="cls-10" d="M393.07,220.42v-5.28L369.2,201.06v5.28Z"/><path class="cls-11" d="M369.2,124.37l23.87,14.07,20.31-11-23.87-14.08Z"/><path class="cls-12" d="M393.06,138.45v82l20.31-11v-82Z"/><g><path class="cls-13" d="M380.48,143.56c5,2.88,9,9.84,9,15.56s-4.06,8-9,5.15-9-9.84-9-15.56S375.5,140.68,380.48,143.56Z"/><path class="cls-14" d="M379.9,145.42c4,2.35,7.75,8.17,7.75,12.85,0,5.15-2.7,6.73-7.23,4.21-4-2.24-7.19-8-7.18-12.72S375.92,143.07,379.9,145.42Z"/><path class="cls-15" d="M380.46,151.31a5,5,0,0,1,2.26,3.92c0,1.44-1,2-2.28,1.3a5,5,0,0,1-2.26-3.92C378.19,151.17,379.21,150.58,380.46,151.31Z"/></g><g><path class="cls-16" d="M380.48,177.76c5,2.88,9,9.84,9,15.56s-4.06,8-9,5.15-9-9.84-9-15.56S375.5,174.89,380.48,177.76Z"/><path class="cls-17" d="M379.9,179.62c4,2.35,7.75,8.17,7.75,12.85,0,5.15-2.7,6.73-7.23,4.21-4-2.24-7.19-8-7.18-12.72S375.92,177.27,379.9,179.62Z"/><path class="cls-18" d="M380.46,185.51a5,5,0,0,1,2.26,3.92c0,1.44-1,2-2.28,1.3a5,5,0,0,1-2.26-3.92C378.19,185.37,379.21,184.79,380.46,185.51Z"/></g><path class="cls-19" d="M407.39,139.08V133.8l4-2.06V137Z"/><path class="cls-20" d="M397.3,211.1a5,5,0,0,1,2.26-3.92,1.55,1.55,0,0,1,1.67-.11h0l1.92,1.14L400,213.74l-2-1.16h0A1.55,1.55,0,0,1,397.3,211.1Z"/><path class="cls-21" d="M401.53,208.34a5,5,0,0,0-2.26,3.92c0,1.44,1,2,2.28,1.3a5,5,0,0,0,2.26-3.92C403.8,208.2,402.78,207.62,401.53,208.34Z"/></g></g><g><polygon class="cls-22" points="88.25 301.03 150.61 338.2 324.79 243.39 262.43 209.06 88.25 301.03"/><path class="cls-23" d="M159.24,285.92l-7.63,44.72"/><path class="cls-23" d="M99.44,252l-7.63,44.72"/><path class="cls-23" d="M319.7,239.69,312.07,195"/><path class="cls-24" d="M138.89,254.18l193.4-109.63-58.53-33.18L80.36,221Z"/><path class="cls-25" d="M138.88,300.34l193.4-109.63V144.55L138.88,254.18Z"/><path class="cls-26" d="M144,291.69,233,241.2V206.58L144,257.07Z"/><path class="cls-27" d="M238.12,238.32l89.06-50.49V153.21L238.12,203.7Z"/><path class="cls-28" d="M80.35,267.16l58.53,33.18V254.18L80.35,221Z"/><path class="cls-29" d="M174.51,257.07,205,239.76l2.55,1.44-30.54,17.31Z"/><path class="cls-30" d="M177.06,258.51,207.6,241.2v2.88L177.06,261.4Z"/><path class="cls-29" d="M268.66,203.7l30.54-17.31,2.55,1.44-30.54,17.31Z"/><path class="cls-30" d="M271.22,205.14l30.54-17.31v2.89L271.22,208Z"/></g><g><polygon class="cls-31" points="26.57 356.46 46.85 367.18 70.76 353.36 50.45 343.16 26.57 356.46"/><g><path class="cls-32" d="M46.85,363.52v-82l23.87-14.07v82Z"/><path class="cls-10" d="M46.85,363.52v-5.28l23.87-14.07v5.28Z"/><path class="cls-33" d="M70.72,267.47,46.85,281.55l-20.31-11,23.87-14.08Z"/><path class="cls-28" d="M46.86,281.56v82l-20.31-11v-82Z"/><g><path class="cls-34" d="M59.44,286.66c-5,2.88-9,9.84-9,15.56s4.06,8,9,5.15,9-9.84,9-15.56S64.42,283.79,59.44,286.66Z"/><path class="cls-35" d="M60,288.52c-4,2.35-7.75,8.17-7.75,12.85,0,5.15,2.7,6.73,7.23,4.21,4-2.24,7.19-8,7.18-12.72S64,286.17,60,288.52Z"/><path class="cls-36" d="M59.46,294.41a5,5,0,0,0-2.26,3.92c0,1.44,1,2,2.28,1.3a5,5,0,0,0,2.26-3.92C61.74,294.27,60.72,293.69,59.46,294.41Z"/></g><g><path class="cls-37" d="M59.44,320.86c-5,2.88-9,9.84-9,15.56s4.06,8,9,5.15,9-9.84,9-15.56S64.42,318,59.44,320.86Z"/><path class="cls-38" d="M60,322.72c-4,2.35-7.75,8.17-7.75,12.85,0,5.15,2.7,6.73,7.23,4.21,4-2.24,7.19-8,7.18-12.72S64,320.37,60,322.72Z"/><path class="cls-39" d="M59.46,328.61a5,5,0,0,0-2.26,3.92c0,1.44,1,2,2.28,1.3a5,5,0,0,0,2.26-3.92C61.74,328.47,60.72,327.89,59.46,328.61Z"/></g><path class="cls-40" d="M32.53,282.18V276.9l-4-2.06v5.28Z"/><path class="cls-41" d="M42.62,354.2a5,5,0,0,0-2.26-3.92,1.55,1.55,0,0,0-1.67-.11h0l-1.92,1.14,3.19,5.55,2-1.16h0A1.55,1.55,0,0,0,42.62,354.2Z"/><path class="cls-42" d="M38.39,351.44a5,5,0,0,1,2.26,3.92c0,1.44-1,2-2.28,1.3a5,5,0,0,1-2.26-3.92C36.12,351.3,37.14,350.72,38.39,351.44Z"/></g></g><polygon class="cls-43" points="260.75 165.18 212.62 179.41 172.45 215.25 118.52 219.56 276.98 127.97 260.75 165.18"/><path class="cls-44" d="M205,173.37l-35.63,40.39"/><path class="cls-44" d="M205,173.37l53.44-10.1"/><path class="cls-45" d="M116,94,281.39.28l5.09,2.88L121.07,96.93Z"/><path class="cls-46" d="M116,94l5.09,2.89V221L116,218.1V94Z"/><path class="cls-47" d="M121.07,96.93V221l165.41-93.77V3.17Z"/><path class="cls-48" d="M126.16,99.82l155.23-88V124.34l-155.23,88Z"/><polygon class="cls-49" points="126.16 99.82 198.59 171.28 233.46 151.51 160.56 80.31 126.16 99.82"/><polygon class="cls-49" points="181.92 68.06 254.35 139.52 270.45 130.53 197.55 59.34 181.92 68.06"/><g><g><path class="cls-50" d="M257.71,419.88h-3.3l.25-1.51h3a2.2,2.2,0,0,1,2.2,2.2v2.2a1.83,1.83,0,0,1-.84,1.54l-4.54,3-.06-1.41a.74.74,0,0,1,.35-.68l3-1.81a1.51,1.51,0,0,0,.72-1.29v-1.51A.75.75,0,0,0,257.71,419.88Z"/><g class="cls-2"><path class="cls-51" d="M255,427.75v.1a.18.18,0,0,1,0,.09s0,.08,0,.1v0s0,0,0,.06a.33.33,0,0,1,0,.1s0,.06,0,.09,0,.06,0,.1,0,0,0,0,0,0,0,0l0,.1,0,.09,0,.1,0,0s0,0,0,0l-.07.12,0,.07-.09.13s0,0,0,0v0l-.18.21,0,0-.15.15s0,0,0,0l0,0-.1.09-.09.07-.1.09-.1.07a.32.32,0,0,1-.12.07l-.1.07-.12.08-.07,0-.09,0a2.53,2.53,0,0,1-.31.16l-.09,0-.25.12-.09,0-.34.13a.09.09,0,0,1-.06,0l-.29.1,0,0h-.07l-.16,0-.13,0-.16,0a.41.41,0,0,1-.15,0l-.18,0-.15,0a.71.71,0,0,1-.18,0h-.13a2.89,2.89,0,0,1-.38.06h-.06l-.34,0h-.35a.39.39,0,0,0-.13,0H247.8l-.2,0h-.12a1.37,1.37,0,0,1-.25,0h-.07l-.32,0h0l-.26,0-.12,0-.21,0h0l-.09,0-.22,0-.12,0-.21-.06-.06,0-.06,0-.31-.1-.06,0-.35-.13,0,0-.1,0-.1,0-.16-.07-.1,0-.16-.09-.09,0-.24-.13a3.35,3.35,0,0,1-2-2.75l0-11.76a3.32,3.32,0,0,0,2,2.74l.23.13.09,0,.16.09.1,0,.16.07.1,0,.15.06.35.13.06,0,.31.1.12,0,.21.06.12,0,.22,0,.1,0,.2,0h.12l.26,0h.06l.32,0h.07l.25,0,.12,0,.2,0h1.32a.39.39,0,0,0,.13,0l.22,0,.13,0,.34,0H250l.38-.06.13,0a.7.7,0,0,1,.18,0l.15,0,.18,0a.42.42,0,0,1,.15,0l.16,0,.13,0,.16,0,.12,0,.29-.1a.08.08,0,0,1,.06,0l.34-.13.09,0,.25-.12.09,0,.31-.16.15-.09a.68.68,0,0,0,.12-.07l.1-.07a.44.44,0,0,1,.12-.07s.07,0,.1-.08l.1-.09L254,418l.1-.09.07-.08a1.06,1.06,0,0,0,.15-.15l0,0,.18-.2,0-.06.09-.13,0-.08.07-.12,0-.07a.35.35,0,0,1,.06-.1l0-.09,0-.1a.2.2,0,0,0,0-.09s0-.06,0-.1,0-.06,0-.09,0-.06,0-.1,0-.06,0-.09,0-.08,0-.1,0-.06,0-.09v-.22l0,11.76v.06A.62.62,0,0,0,255,427.75Z"/><g><path class="cls-52" d="M243.76,418.59c-2.6-1.5-2.61-3.94,0-5.45a10.37,10.37,0,0,1,9.39,0c2.6,1.5,2.61,3.93,0,5.45A10.4,10.4,0,0,1,243.76,418.59Z"/><path class="cls-53" d="M248.47,419.16a8.94,8.94,0,0,1-4.43-1.06,2.82,2.82,0,0,1-1.69-2.26,2.77,2.77,0,0,1,1.66-2.23,9.81,9.81,0,0,1,8.85,0,2.82,2.82,0,0,1,1.69,2.26,2.77,2.77,0,0,1-1.66,2.23A8.88,8.88,0,0,1,248.47,419.16Z"/><path class="cls-54" d="M244,418.11a5.21,5.21,0,0,1-.79-.56A4.48,4.48,0,0,1,244,417a9.78,9.78,0,0,1,8.85,0,5,5,0,0,1,.79.56,5.18,5.18,0,0,1-.76.54,9.79,9.79,0,0,1-8.85,0Z"/></g></g></g><g><polygon class="cls-55" points="90.48 457.04 145.75 489.95 228.34 442.24 168.35 410.75 90.48 457.04"/><g><path class="cls-56" d="M226.64,440.63V423.35"/><g><path class="cls-56" d="M146.16,487.61v-22.5l4.63-3.86"/><path class="cls-56" d="M92.53,454.75V434.91L97.16,431"/><path class="cls-57" d="M108.2,412.49,87,371.72l63.54-36.46h0c2.76-1.57,6.4-1.41,10.38.84,8.62,4.86,15.61,17.68,15.61,28.61,0,5.84-2,10.1-5.16,11.94Z"/><path class="cls-58" d="M166.82,367.69l61.07,34.62-51.67,29.5-61.07-34.62Z"/></g></g><path class="cls-59" d="M154.86,371.43s24.29-8.78,28.87-6.58,6.6,13.75,6.6,13.75l-3.09-.27-3.85-.48-19,7.52Z"/><path class="cls-59" d="M161.25,384.26s27.82-14,36.21-13.43c3.48.23,5.18,5.13,5.18,5.13l-29.29,16.82Z"/><g><path class="cls-52" d="M201.45,351.63,171,334.09a1.28,1.28,0,0,0-.17.63v23.36a.79.79,0,0,0,.4.69l30.15,17.41a1.29,1.29,0,0,0,.64.17V352.57A1.08,1.08,0,0,0,201.45,351.63Z"/><path class="cls-60" d="M200.59,372.34l0-10.31,0-8.86a.53.53,0,0,0,0-.22.56.56,0,0,0-.24-.28l-18.79-10.88-4.83-2.8-3.93-2.27a.33.33,0,0,0-.5.29V357.4a.57.57,0,0,0,.29.49l9.72,5.61,7.89,4.56,10,5.75a.33.33,0,0,0,.5-.29Z"/><path class="cls-61" d="M202.65,350.72,173,333.61a1.55,1.55,0,0,0-1.55,0,1.29,1.29,0,0,0-.47.48l30.47,17.53a1.08,1.08,0,0,1,.54.94v23.79a1.31,1.31,0,0,0,.66-.18,1.55,1.55,0,0,0,.77-1.34V352.07A1.55,1.55,0,0,0,202.65,350.72Z"/><path class="cls-62" d="M181.41,388.44a1.35,1.35,0,0,1-1.35,0l-30.4-17.55a.89.89,0,0,0-.12.45v.61a.9.9,0,0,0,.45.77l30.06,17.36a1.36,1.36,0,0,0,1.36,0l20.13-11.62a.89.89,0,0,0,.45-.77v-.6a.89.89,0,0,0-.12-.45Z"/><path class="cls-52" d="M181.41,388.44l20.46-11.81a.88.88,0,0,0-.33-.33l-30.43-17.58a.59.59,0,0,0-.59,0L150,370.56a.88.88,0,0,0-.33.33l30.4,17.55A1.35,1.35,0,0,0,181.41,388.44Z"/><g><path class="cls-63" d="M172.36,360.06l.66-.39a.75.75,0,0,1,.75,0l4,2.29a.25.25,0,0,1,0,.43l-.67.38a.74.74,0,0,1-.74,0l-4-2.28A.25.25,0,0,1,172.36,360.06Z"/><path class="cls-64" d="M194.49,373l.67-.39a.75.75,0,0,1,.75,0l4,2.29a.25.25,0,0,1,0,.43l-.67.38a.75.75,0,0,1-.74,0l-4-2.28A.25.25,0,0,1,194.49,373Z"/></g><g><path class="cls-65" d="M172.36,359.72l.66-.39a.75.75,0,0,1,.75,0l4,2.29a.25.25,0,0,1,0,.43l-.67.38a.75.75,0,0,1-.74,0l-4-2.28A.25.25,0,0,1,172.36,359.72Z"/><path class="cls-66" d="M194.49,372.61l.67-.39a.75.75,0,0,1,.75,0l4,2.29a.25.25,0,0,1,0,.43l-.67.38a.75.75,0,0,1-.74,0l-4-2.28A.25.25,0,0,1,194.49,372.61Z"/></g><g><path class="cls-67" d="M166.79,373.06l9.29,5.36.06,0a.23.23,0,0,0,0-.4l-9.35-5.4a.48.48,0,0,0-.48,0l-5,2.92a.23.23,0,0,0,0,.39l.06,0,5-2.88A.48.48,0,0,1,166.79,373.06Z"/><g><path class="cls-68" d="M176.08,378.42l-9.29-5.36a.48.48,0,0,0-.48,0l-3.06,1.77,9.48,5.52Z"/><path class="cls-69" d="M163.26,374.83l-1.92,1.11,9.24,5.38a.48.48,0,0,0,.48,0l1.68-1Z"/></g></g><g><path class="cls-70" d="M197.43,377.37h0v-.51h-.56l-27.21-15.73a.57.57,0,0,0-.57,0l-7.32,4.29h-.56v.5h0a.32.32,0,0,0,.16.29l27.56,15.86a.57.57,0,0,0,.57,0l7.77-4.42a.32.32,0,0,0,.16-.25h0Z"/><path class="cls-71" d="M161.36,365.14l7.72-4.52a.57.57,0,0,1,.57,0l27.61,16a.32.32,0,0,1,0,.56l-7.77,4.42a.57.57,0,0,1-.57,0l-27.56-15.86A.32.32,0,0,1,161.36,365.14Z"/></g><g class="cls-72"><g><path class="cls-73" d="M203.22,350.28a.72.72,0,0,0-.06-.27L182,362.23l-2,1.13,10,5.76L192,368l11.27-6.51Z"/><path class="cls-73" d="M187,331.29a.88.88,0,0,0-.08-.35L160,346.48l-2.49,1.44,12.7,7.33,2.47-1.43L187,345.55Z"/></g></g></g><g><path class="cls-74" d="M168.58,325.26s-2,13.28-4.23,15.08-7-1.34-7-1.34l-2,7.06s-4.11,1.35-6.73-.42a13.35,13.35,0,0,1-4.05-5.29L148,328.16Z"/><g><path class="cls-74" d="M137.42,383.91l-1.74,4.75.68,3.43.81,3.44-.49,3.82s-.14,1.51,2.86,3.16c1.53.84,2.88-1.42,2.88-1.42.62-.61,1-2.95.9-4.32s-1.13-6.54-1.13-6.54C141.56,388.38,138.79,383.61,137.42,383.91Z"/><path class="cls-75" d="M138.52,391.85c-3,.35-4-1.43-4-1.43s-.33-3.5-.43-4.16c-.58-3.73-2.25-13.39-2.34-18.08-.09-5.16,1.44-18.76,1.44-18.76s1.07-11.51,8.88-11.09c4.72.25,2.18,7,2.17,11.14,0,3.25-1.9,19.75-1.9,19.75l.76,20.3A7.18,7.18,0,0,1,138.52,391.85Z"/></g><path class="cls-76" d="M159.77,349.16c2.24,2,3.34,7.26,4.71,15.51a119.49,119.49,0,0,0,7.7,26.4c.1,1.31-11.45,13.35-13.78,14.26a26.65,26.65,0,0,1-11.49,1.35c-6.08-.62-12.6-4.65-12.73-6.28,0,0,1.76-17.62-.95-42.34-2-17.92,7.25-20.74,7.25-20.74l9.21,2.43Z"/><path class="cls-59" d="M144.13,336.18c-1.29-.2-1.59,0-1.77.83a15.32,15.32,0,0,1-.4,1.58c-.2.63.09.65.09.65s7.16.28,11.41,4.08c1.78,1.59,3.53,3.22,3.53,3.22l-.71-3.52c-.78-2.14-3.48-4.1-7.38-5.47A38,38,0,0,0,144.13,336.18Z"/><path class="cls-77" d="M162.92,328.17a9.44,9.44,0,0,0,5.66-2.91c2.09-2.53,3.39-8.39-3.72-11.42s-15.43-.52-18.7,3.76-2.75,7.58-8.29,13.46-10.25,11-1.79,16.09c7.63,4.61,16.87,4.34,18.22-7S162.92,328.17,162.92,328.17Z"/></g><path class="cls-78" d="M151.24,362.45s6,23.15,10.82,24.71,23.39,3.47,23.39,3.47L187.2,386s-17.1-5.05-19-8.1-4.76-24.4-7.38-27.87S147.7,350.93,151.24,362.45Z"/><path class="cls-79" d="M169.8,447l-21.15-40.77,63.54-36.46h0c2.76-1.57,6.4-1.41,10.38.84,8.62,4.86,15.61,17.68,15.61,28.61,0,5.84-2,10.1-5.16,11.94Z"/><path class="cls-80" d="M233.49,424l-60.17,34.11V445l60.17-34.11Z"/><path class="cls-81" d="M85,426.41V355.57l72.07,40.85v70.84Z"/><path class="cls-82" d="M101.24,346.38l72.07,40.85-16.2,9.18L85,355.57Z"/><path class="cls-83" d="M173.29,387.24v70.84l-16.2,9.18V396.43Z"/></g><g><polygon class="cls-84" points="213.02 369.58 210.68 370.93 208.25 372.34 215.49 376.55 217.93 375.14 220.27 373.79 213.02 369.58"/><path class="cls-59" d="M207.08,371.2l.06,0,3.86-2.23.08,0a1.64,1.64,0,0,1,1.28-.14l.08,0,9.88,5.74a.45.45,0,0,1-.05.76l0,0-.53.31-3.07,1.77-.53.3,0,0a1.81,1.81,0,0,1-1.31,0L206.86,372l-.06,0C206.56,371.72,206.69,371.43,207.08,371.2Zm8.42,5.35,2.43-1.4,2.34-1.35L213,369.58l-2.34,1.35-2.43,1.4,7.24,4.21Zm4.11-.4a.34.34,0,0,0,0-.65,1.25,1.25,0,0,0-1.12,0,.34.34,0,0,0,0,.65,1.26,1.26,0,0,0,1.12,0Zm-9-6.31-1.89,1.09.4.24,1.89-1.09-.4-.24Z"/><polygon class="cls-85" points="208.71 370.93 209.11 371.17 211 370.08 210.6 369.84 208.71 370.93"/><path class="cls-86" d="M218.48,375.5a.34.34,0,0,0,0,.65,1.25,1.25,0,0,0,1.13,0,.34.34,0,0,0,0-.65A1.25,1.25,0,0,0,218.48,375.5Z"/><path class="cls-87" d="M222.5,374.89a.45.45,0,0,1-.24.4l0,0-.53.31-3.07,1.77-.53.3,0,0-.14.06h0l-.15,0h0l-.17,0h-.39l-.16,0-.15,0-.1,0L206.86,372l-.06,0-.06-.06h0l0,0v0a.1.1,0,0,1,0,0h0a.21.21,0,0,1,0-.06v1h0s0,0,0,.05h0v.06h0l0,0v0h0l.05.05h0l0,0h0l9.88,5.74.1,0h0l.15,0h0l.15,0h.62l.09,0H218l.1,0,0,0,.53-.3,3.07-1.78.53-.3,0,0a.45.45,0,0,0,.24-.4C222.51,375.57,222.5,375.23,222.5,374.89Z"/><g class="cls-88"><path class="cls-73" d="M211.28,363.83a.36.36,0,0,0-.14-.05l-.35,12.79,0,1.19,5.29-.68.05-3.37.19-6.82Z"/></g></g></g><g><g><polygon class="cls-89" points="301.48 416.78 391.81 467.31 569 367.72 478.67 320.31 301.48 416.78"/><path class="cls-90" d="M297.31,384.78,487.37,277l63.44,36L360.75,420.74Z"/><path class="cls-91" d="M560.55,337.87l4.87,2.76v26"/><path class="cls-91" d="M387.41,436l4.87,2.76v26"/><path class="cls-91" d="M299.74,386.16l4.87,2.76v26"/><path class="cls-92" d="M461.11,294.13c-3.34-1.93-5.43-6.42-5.43-12.57,0-11.51,7.36-25,16.44-30.12,4.2-2.37,8-2.53,10.93-.88h0l66.9,38.38-22.27,42.93Z"/></g><g><path class="cls-74" d="M491.88,232.18l-7.37,0,.85,19c.14,5.46,2.41,6.36,4.06,6.43,3.43.15,7.3-1.65,9.25-2.72,3.79-2.07,3.93-8.43,4-9l1.63-12.64Z"/><path class="cls-74" d="M502.44,259.13l-2-11.33L490.94,250l1.24,11c0,1.57-1.11,2-1.94,3.32Z"/><path class="cls-93" d="M505.63,230.28c-.14-.35.11-1.2-2.19-2.39-9.91-5.09-16.45.56-17,1.33,0,0,.26-.23-.28.29-.87.85-1,1.26-2,2.41a11.5,11.5,0,0,0-1.49,2.75c.08.22.81.54,1.66,1.33,1.29,1.19,2.86,3.41,2.89,7.87l.18,2c-.05.73,1.24-1.31,1.8-1.9s2.44-1.09,3.67,3a5.37,5.37,0,0,0,3.54,3.87c3.64,1,4,3,4.69,3.61a7.33,7.33,0,0,1,1.67-3c.46-.56,3.83-4.32,4.55-6.08,1-2.59,1.63-6.87,1.79-7.15a5.39,5.39,0,0,0,.13-4.29C508.7,232.54,507.12,231.33,505.63,230.28Z"/><path class="cls-74" d="M489.63,243.25s-.88-.11-.36,1.2a6.28,6.28,0,0,1,.58,2.79c0,.65-.34,2.58-.34,2.58s.48.85,1.12-.29a7.76,7.76,0,0,0,.63-3C491.29,246,490.6,243,489.63,243.25Z"/><path class="cls-74" d="M487.36,246s.07,2.12-.59,2.42,1.71.74,1.71.56a21.89,21.89,0,0,0-.48-2.64C487.88,246.15,487.36,246,487.36,246Z"/></g><path class="cls-94" d="M303.89,388.09,367.24,424v13.81L303.89,401.9Z"/><path class="cls-74" d="M474.07,284.5s-3.69.28-5.11-.57-2.84-8.51-2.84-8.51l11.06,4.11Z"/><g><path class="cls-95" d="M459.45,273.6c2.79,1.26,4.49,2.54,4.49,4.2s-.53,2-.53,2l-1.67,1.42-13.58-11.52a8.64,8.64,0,0,1,1.2-.06C450,269.71,458.51,273.17,459.45,273.6Z"/><path class="cls-96" d="M448.4,269.75s11.62,4.59,13.4,6.2a3.59,3.59,0,0,1-.07,5.28c-1.56,1.28-4.25,1-4.25,1s-9.29-6.19-10.71-7.75a3.29,3.29,0,0,1-.57-2.92C446.45,270.52,447.6,269.53,448.4,269.75Z"/><path class="cls-97" d="M449.39,272.9a4.61,4.61,0,0,0-.62,3.6"/><path class="cls-98" d="M451.17,274.09a4.61,4.61,0,0,0-.62,3.6"/></g><path class="cls-99" d="M451.9,281.52l40.28,12.39-16.26,12.48-21.13-10.92L452.28,297s-5.58.28-7.09-3.12-1.61-7.75-.76-9.36S447.55,280.76,451.9,281.52Z"/><path class="cls-100" d="M428.83,285.11s-4.07,3.88-1.23,8,27.89,24,27.89,24l18-12.86-28.37-13.62,14.28-8.41a8.5,8.5,0,0,0-4-8.13Z"/><g><path class="cls-101" d="M471.7,281.59a6,6,0,0,1-1.49,3.64c-1.74,2.1-4.77,3.67-8.52,4.43a24.49,24.49,0,0,1-4.84.48c-6.34,0-12-2.37-14.06-5.9a5.65,5.65,0,0,1-.8-2.53c0,.12,0,.24,0,.36a14.88,14.88,0,0,0,29.76,0C471.72,281.91,471.7,281.75,471.7,281.59Z"/><path class="cls-102" d="M456.84,272.66c6.34,0,12,2.37,14.06,5.9a5.52,5.52,0,0,1-.69,6.68c-1.74,2.1-4.77,3.67-8.52,4.43a24.49,24.49,0,0,1-4.84.48c-6.34,0-12-2.37-14.06-5.9-2.67-4.56,1.47-9.54,9.22-11.11A24.39,24.39,0,0,1,456.84,272.66Z"/><path class="cls-103" d="M456.84,272.84c6.21,0,11.74,2.32,13.76,5.77a5.4,5.4,0,0,1-.68,6.53c-1.7,2.05-4.67,3.6-8.34,4.34a24,24,0,0,1-4.74.47c-6.21,0-11.74-2.32-13.76-5.77-2.61-4.46,1.44-9.34,9-10.87A23.88,23.88,0,0,1,456.84,272.84Z"/></g><path class="cls-104" d="M507.61,257.55a9.93,9.93,0,0,1,7.73,6.48c1.23,3.56-2.27,12.48-2.27,12.48Z"/><path class="cls-105" d="M482,270.94c-2.22,2.29-7.07,10.62-10.66,17.81-2.27,4.54-9.36,11.91-9.36,11.91,0,1.4,25,29.72,27.58,30.5a28.38,28.38,0,0,0,12.3.48c6.39-1.16,13-6,13-7.72,0,0-1.48-21.77-.67-48.21.2-6.49-.81-11-2.24-14.22-2.79-6.2-9-3.94-9-3.94l-9.33,3.9Z"/><path class="cls-106" d="M501.11,254.79c1.35-.32,1.69-.08,1.95.73a15.94,15.94,0,0,0,.56,1.65c.27.65,0,.69,0,.69a48.71,48.71,0,0,0-11.76,5.28,19.43,19.43,0,0,0-3.55,2.78l.54-2.85c.65-2.34,3.35-4.64,7.38-6.41A40.5,40.5,0,0,1,501.11,254.79Z"/><path class="cls-107" d="M377.42,422.74c9.08-5.12,16.44-18.61,16.44-30.13S386.5,375.9,377.42,381,361,399.63,361,411.15,368.34,427.86,377.42,422.74Z"/><path class="cls-108" d="M393.68,355c-7.46,14-12.09,5.7-17.08,5.77-8,.11-12-2.54-12-2.54s3.48-16,14.32-22.63c6.41-3.89,18.27,15.33,18.27,15.33S395.83,351,393.68,355Z"/><path class="cls-109" d="M416.09,358c5.07,15.62-10.06,23.72-20.72,24.78-11.24,1.11-41.22-17.34-41.22-17.34l-4.36,2.47-9.69-5.56s.81-8.28,5.09-13.71c3.67-4.66,41,8.54,41,8.54s3.86-3.13,7.18-3.49C402.44,352.71,415.26,355.42,416.09,358Z"/><path class="cls-110" d="M397.29,363.63c5.07,15.62-10.08,20.71-20.75,21.76-11.24,1.11-45.67-13.17-45.67-13.17l-4.36,2.47-9.69-5.56s.81-8.28,5.09-13.71c3.67-4.66,42.78,8.71,42.78,8.71S396.16,360.13,397.29,363.63Z"/><path class="cls-111" d="M416.68,342.88s-5.28,3.35-16.93,2.89-15.19-1.85-15.19-1.85l.18,2.48a46.19,46.19,0,0,0,19,2.87c10.49-.51,13.56-4,13.56-4Z"/><g><path class="cls-112" d="M421.84,300.57s.13,2.31.64,2.79a12.33,12.33,0,0,1,4.81,8.7c.52,5.63-.11,17.52-6,27.71-3.2,5.55-6.19,10.62-7,13.22-.57,1.89-.15,6.51-2,8.27-.57.56-8.9,1.51-15.68-1.28-9.23-3.81-5.73-6.05-5.67-7,.35-5.83-3.44-28.14-1.24-35-.47-6.05,16-17.38,16-17.38l.33-2.46Z"/><path class="cls-113" d="M418.06,297.9c-.1-.78-1.29-5.27-1.29-8.08s-1.87-12.38-5.86-14.79-9.9-3.63-10.14-1.89-2.81,20.68.55,21.06c6.8.76,5.7,5,5.7,5Z"/><path class="cls-114" d="M436.12,313.54c.38-14.94-8.5-15.21-8.29-27.4.1-5.59-2.54-13.24-9-16.43s-14.33-7.41-17-3.49a11,11,0,0,0-1,10.79c1.18,2.37,4.7,9.71,4.7,9.71s-.51-5.77.91-5.21c1.76.69.82,5.7.82,7,0,.81-6.59,31.64,11.39,44C424,336.23,435.9,322.29,436.12,313.54Z"/><path class="cls-115" d="M402.79,312.88A5.36,5.36,0,0,0,394,310c-1.61,1.47-2.94,3.21-3.14,5-.57,5.11-5.29,21.56-5.29,21.56s1.89,10,6.24,9.08,11.16-21.75,11.54-27A22.08,22.08,0,0,0,402.79,312.88Z"/></g><g><g><g><path class="cls-74" d="M365.27,320.91s-.75-2.62-1.35-3.06S353,314.55,352.09,316s-1.2,1.91-.42,2.15a1.14,1.14,0,0,1,.87.79s-1.84,1-1.16,1.86,2.55.28,2.55.28l7.9,6,4.47-3Z"/><g><path class="cls-116" d="M361.15,330.52l3.34-15.26-12.39-1-.1,15.38h0a1.77,1.77,0,0,0,.15.65c.52,1.15,2.17,2.07,4.12,2.29a7.57,7.57,0,0,0,1.51,0,4.58,4.58,0,0,0,2.77-1.07,1.93,1.93,0,0,0,.53-.88h0v-.11Z"/><path class="cls-117" d="M365.11,313.34a2.69,2.69,0,0,1-.84,1.55,6.62,6.62,0,0,1-4,1.55,11,11,0,0,1-2.18,0c-2.82-.31-5.21-1.64-6-3.31a2.5,2.5,0,0,1-.22-1.26h0l-.22,2h0a2.51,2.51,0,0,0,.23,1.21c.75,1.67,3.14,3,6,3.31a11,11,0,0,0,2.18,0,6.62,6.62,0,0,0,4-1.55,2.69,2.69,0,0,0,.84-1.54h0l.22-2Z"/><path class="cls-118" d="M358.91,308.92c2.82.31,5.21,1.64,6,3.31a2.47,2.47,0,0,1-.64,2.93,6.62,6.62,0,0,1-4,1.55,11,11,0,0,1-2.18,0c-2.82-.31-5.21-1.64-6-3.31-1-2.16,1.12-4.17,4.64-4.49A10.91,10.91,0,0,1,358.91,308.92Z"/></g><path class="cls-74" d="M363.62,321.42a7,7,0,0,0-2.51-1c-1.35-.23-4.95.37-4.35,1.21s3.29.5,4,1S363,326.1,364,325,363.62,321.42,363.62,321.42Z"/></g><polyline class="cls-119" points="360.18 313.14 361.7 304.96 365.41 303.8"/></g><path class="cls-108" d="M364.76,371c-8.33,15.6-26.44,11.55-26.44,11.55s1.63-24.86,5.69-32.79c4.25-8.29,23.44,11.7,23.44,11.7A27.39,27.39,0,0,1,364.76,371Z"/><path class="cls-74" d="M368.67,282.65l-7.48.91,3.12,19.23c.79,5.53,3.2,6.17,4.89,6.05,3.5-.26,7.21-2.54,9.07-3.86,3.6-2.55,3-9,3-9.56l.16-13Z"/><path class="cls-74" d="M382.82,308.71l-2-11.59-9.74,2.27,1.26,11.26c0,1.6-1.13,2-2,3.4Z"/><path class="cls-120" d="M381.95,307.06c1.45-.35,1.81-.09,2.09.79a17.67,17.67,0,0,0,.6,1.77c.28.7,0,.75,0,.75A49.35,49.35,0,0,0,372,316c-3.83,2.61-4.13,2.86-4.13,2.86l.9-2.94c.7-2.51,3.6-5,7.92-6.89A43.41,43.41,0,0,1,381.95,307.06Z"/><path class="cls-121" d="M382.41,279.08c-.18-.34,0-1.24-2.5-2.16-10.67-4-16.31,2-16.75,2.87,0,0,1,.19.39.69a13.68,13.68,0,0,0-2.72,2.82,11.76,11.76,0,0,0-1.18,3c.27.53,4.79,1.29,5.71,8.8l.42,2c0,.75,1.1-1.48,1.6-2.14s2.34-1.39,4.08,2.65a5.49,5.49,0,0,0,4,3.51c3.81.54,4.45,2.57,5.19,3.11a7.49,7.49,0,0,1,1.34-3.26c.4-.62,3.38-4.84,3.9-6.72C387.69,287.81,387.77,282,382.41,279.08Z"/><g><path class="cls-74" d="M368.24,294.3a2.82,2.82,0,0,1,2.18,2,3.26,3.26,0,0,1-.23,2.69,2.85,2.85,0,0,1-1.33,1.07s-.09-3.08-.14-3.65A20.75,20.75,0,0,0,368.24,294.3Z"/><path class="cls-74" d="M367.47,293.66s-.9,0-.22,1.26a6.44,6.44,0,0,1,.92,2.77c0,.66,0,2.67,0,2.67s.59.81,1.1-.43a7.92,7.92,0,0,0,.29-3.12C369.48,296.22,368.43,293.33,367.47,293.66Z"/></g><path class="cls-122" d="M360.47,323.12c-2.4,2.48-2.56,10.84-2.11,19.54.89,17.23-2.65,41.41-2.65,41.41,0,1.51,8.77,5.29,11.53,6.13a30.78,30.78,0,0,0,13.34.52c6.93-1.26,14.07-6.48,14.07-8.37,0,0,0-23.65.9-52.32.22-7,.46-14.44-1.09-17.88-3-6.72-12.73-1.76-12.73-1.76l-10.11,4.23Z"/></g><g><path class="cls-123" d="M297.79,385.06c-3.34-1.94-5.43-6.42-5.43-12.57,0-11.51,7.36-25,16.44-30.12,4.2-2.37,8-2.53,10.93-.88h0l66.9,38.38-22.27,42.93Z"/><path class="cls-124" d="M339.16,398.31c0-11.51,7.36-25,16.44-30.12a13.27,13.27,0,0,1,7.21-2,.48.48,0,0,0,.27-.9l-27.21-15.67c-2.91-1.65-6.74-1.49-10.93.88-9.07,5.11-16.44,18.61-16.44,30.12v19.19l30.66,16.88Z"/><path class="cls-125" d="M377.72,444.18V369.59L580,255v74.58Z"/><path class="cls-126" d="M580,254.95,377.72,369.59l-17.06-9.67L562.9,245.28Z"/><path class="cls-127" d="M377.73,369.6v74.58l-17.05-9.67V359.93Z"/></g><path class="cls-74" d="M451.62,303.62s-4.3,4.37-4.72,6.5l-.12,1,5.8-3.27Z"/><path class="cls-128" d="M454.22,301.52s16.27-5.69,17.73-6.95c3.12-2.69,9.08-22.69,9.08-22.69,5.53-5.67,12.2,5.25,11.06,10.35-.78,3.5-4.82,15.6-8.23,20.14s-32.43,6.1-32.43,6.1-1.23-2.17-.47-4S454.22,301.52,454.22,301.52Z"/><path class="cls-74" d="M470.24,277.27s-4.4,2.27-2,2.84a4.5,4.5,0,0,0,3.69-.43,2,2,0,0,0,1.84,2.13c2,.14,2.27-2.84,2.27-2.84S471.94,276.7,470.24,277.27Z"/><g class="cls-129"><g><g><path class="cls-130" d="M447.12,285.55a.52.52,0,0,0-.07.18H447a.77.77,0,0,0-.29-.4.8.8,0,0,0-.89,1.32.78.78,0,0,0,.5.12l0,0a.47.47,0,0,0-.14.13.52.52,0,0,0,.87.58.51.51,0,0,0,.08-.22.78.78,0,0,0,.43-.11.54.54,0,0,0,.49-.94l0,0a.59.59,0,0,0-1-.66Z"/><path class="cls-131" d="M450.6,286.48a.52.52,0,0,0-.19,0l0-.05a.77.77,0,0,0,.17-.47.8.8,0,0,0-1.59,0,.78.78,0,0,0,.18.48l0,0a.47.47,0,0,0-.19,0,.52.52,0,0,0,0,1,.51.51,0,0,0,.22-.05.78.78,0,0,0,.33.3.54.54,0,0,0,1.05-.12h.05a.59.59,0,0,0,0-1.18Z"/><path class="cls-132" d="M458.91,285.75a.52.52,0,0,0-.07.18h-.06a.77.77,0,0,0-.29-.4.8.8,0,0,0-.89,1.32.78.78,0,0,0,.5.12l0,0a.47.47,0,0,0-.14.13.52.52,0,1,0,.87.58.51.51,0,0,0,.08-.22.78.78,0,0,0,.43-.11.54.54,0,0,0,.49-.94l0,0a.59.59,0,0,0-1-.66Z"/><path class="cls-133" d="M452.9,287.36a.52.52,0,0,0,.15-.12l0,0a.77.77,0,0,0,.07.49.8.8,0,0,0,1.41-.74.78.78,0,0,0-.39-.34s0,0,0,0a.47.47,0,0,0,.18,0,.52.52,0,1,0-.49-.93.51.51,0,0,0-.17.15.78.78,0,0,0-.43-.11.54.54,0,0,0-.88.6l-.05,0a.59.59,0,0,0,.55,1Z"/><path class="cls-134" d="M453.86,285.07a.52.52,0,0,0-.13-.14l0,0a.77.77,0,0,0,.49-.1.8.8,0,0,0-.82-1.36.78.78,0,0,0-.32.4h0a.47.47,0,0,0-.06-.18.52.52,0,1,0-.9.54.51.51,0,0,0,.16.16.78.78,0,0,0-.09.44.54.54,0,0,0,.65.84s0,0,0,.05a.59.59,0,0,0,1-.61Z"/><path class="cls-135" d="M449.41,283.65a.52.52,0,0,0-.19,0l0-.05a.77.77,0,0,0,.17-.47.8.8,0,0,0-1.59,0,.78.78,0,0,0,.18.48l0,0a.47.47,0,0,0-.19,0,.52.52,0,0,0,0,1,.51.51,0,0,0,.22-.05.78.78,0,0,0,.33.3.54.54,0,0,0,1.05-.12h.05a.59.59,0,0,0,0-1.18Z"/><path class="cls-136" d="M450.2,288.93a.52.52,0,0,0,.15-.12l0,0a.77.77,0,0,0,.07.49.8.8,0,0,0,1.41-.74.78.78,0,0,0-.39-.34s0,0,0,0a.47.47,0,0,0,.18,0,.52.52,0,1,0-.49-.93.51.51,0,0,0-.17.15.78.78,0,0,0-.43-.11.54.54,0,0,0-.88.6l-.05,0a.59.59,0,0,0,.55,1Z"/><path class="cls-137" d="M452.05,286.09a.52.52,0,0,0-.13-.14l0,0a.77.77,0,0,0,.49-.1.8.8,0,0,0-.82-1.36.78.78,0,0,0-.32.4h0a.47.47,0,0,0-.06-.18.52.52,0,0,0-.9.54.51.51,0,0,0,.16.16.78.78,0,0,0-.09.44.54.54,0,0,0,.65.84s0,0,0,.05a.59.59,0,0,0,1-.61Z"/><path class="cls-138" d="M452.94,283.29a.52.52,0,0,0-.07.18h-.06a.77.77,0,0,0-.29-.4.8.8,0,0,0-.89,1.32.78.78,0,0,0,.5.12l0,0a.47.47,0,0,0-.14.13.52.52,0,0,0,.87.58A.51.51,0,0,0,453,285a.78.78,0,0,0,.43-.11.54.54,0,0,0,.49-.94l0,0a.59.59,0,0,0-1-.66Z"/><path class="cls-139" d="M452.68,288.9a.52.52,0,0,0-.19,0l0-.05a.77.77,0,0,0,.17-.47.8.8,0,0,0-1.59,0,.78.78,0,0,0,.18.48l0,0a.47.47,0,0,0-.19,0,.52.52,0,1,0,0,1,.51.51,0,0,0,.22-.05.78.78,0,0,0,.33.3.54.54,0,0,0,1.05-.12h.05a.59.59,0,0,0,0-1.18Z"/><path class="cls-140" d="M456.23,284.7a.52.52,0,0,0-.07.18h-.06a.77.77,0,0,0-.29-.4.8.8,0,0,0-.89,1.32.78.78,0,0,0,.5.12l0,0a.47.47,0,0,0-.14.13.52.52,0,0,0,.87.58.51.51,0,0,0,.08-.22.78.78,0,0,0,.43-.11.54.54,0,0,0,.49-.94l0,0a.59.59,0,0,0-1-.66Z"/><path class="cls-141" d="M455.57,290.17a.52.52,0,0,0,.15-.12l0,0a.77.77,0,0,0,.07.49.8.8,0,0,0,1.41-.74.78.78,0,0,0-.39-.34s0,0,0,0a.47.47,0,0,0,.18,0,.52.52,0,0,0-.49-.93.51.51,0,0,0-.17.15.78.78,0,0,0-.43-.11.54.54,0,0,0-.88.6l-.05,0a.59.59,0,0,0,.55,1Z"/><path class="cls-142" d="M461.45,288.44a.52.52,0,0,0-.13-.14l0,0a.77.77,0,0,0,.49-.1.8.8,0,0,0-.82-1.36.78.78,0,0,0-.32.4h0a.47.47,0,0,0-.06-.18.52.52,0,1,0-.9.54.51.51,0,0,0,.16.16.78.78,0,0,0-.09.44.54.54,0,0,0,.65.84s0,0,0,.05a.59.59,0,0,0,1-.61Z"/><path class="cls-143" d="M463.29,287a.52.52,0,0,0-.19,0l0-.05a.77.77,0,0,0,.17-.47.8.8,0,0,0-1.59,0,.78.78,0,0,0,.18.48l0,0a.47.47,0,0,0-.19,0,.52.52,0,0,0,0,1,.51.51,0,0,0,.22-.05.78.78,0,0,0,.33.3.54.54,0,0,0,1.05-.12h.05a.59.59,0,0,0,0-1.18Z"/><path class="cls-144" d="M454.29,289.07a.52.52,0,0,0,.15-.12l0,0a.77.77,0,0,0,.07.49.8.8,0,0,0,1.41-.74.78.78,0,0,0-.39-.34s0,0,0,0a.47.47,0,0,0,.18,0,.52.52,0,1,0-.49-.93.51.51,0,0,0-.17.15.78.78,0,0,0-.43-.11.54.54,0,0,0-.88.6l-.05,0a.59.59,0,0,0,.55,1Z"/><path class="cls-145" d="M459.23,289.24a.52.52,0,0,0-.13-.14l0,0a.77.77,0,0,0,.49-.1.8.8,0,0,0-.82-1.36.78.78,0,0,0-.32.4h0a.47.47,0,0,0-.06-.18.52.52,0,0,0-.9.54.51.51,0,0,0,.16.16.78.78,0,0,0-.09.44.54.54,0,0,0,.65.84s0,0,0,.05a.59.59,0,0,0,1-.61Z"/><path class="cls-146" d="M453.36,281.11a.52.52,0,0,0-.07.18h-.06a.77.77,0,0,0-.29-.4.8.8,0,0,0-.89,1.32.78.78,0,0,0,.5.12l0,0a.47.47,0,0,0-.14.13.52.52,0,0,0,.87.58.51.51,0,0,0,.08-.22.78.78,0,0,0,.43-.11.54.54,0,0,0,.49-.94l0,0a.59.59,0,0,0-1-.66Z"/><path class="cls-147" d="M456.84,282a.52.52,0,0,0-.19,0l0-.05a.77.77,0,0,0,.17-.47.8.8,0,0,0-1.59,0,.78.78,0,0,0,.18.48l0,0a.47.47,0,0,0-.19,0,.52.52,0,1,0,0,1,.51.51,0,0,0,.22-.05.78.78,0,0,0,.33.3.54.54,0,0,0,1.05-.12h.05a.59.59,0,0,0,0-1.18Z"/><path class="cls-148" d="M465.56,281.84a.52.52,0,0,0-.07.18h-.06a.77.77,0,0,0-.29-.4.8.8,0,0,0-.89,1.32.78.78,0,0,0,.5.12l0,0a.47.47,0,0,0-.14.13.52.52,0,0,0,.87.58.51.51,0,0,0,.08-.22.78.78,0,0,0,.43-.11.54.54,0,0,0,.49-.94l0,0a.59.59,0,0,0-1-.66Z"/><path class="cls-149" d="M459.14,282.93a.52.52,0,0,0,.15-.12l0,0a.77.77,0,0,0,.07.49.8.8,0,0,0,1.41-.74.78.78,0,0,0-.39-.34s0,0,0,0a.47.47,0,0,0,.18,0,.52.52,0,0,0-.49-.93.51.51,0,0,0-.17.15.78.78,0,0,0-.43-.11.54.54,0,0,0-.88.6l-.05,0a.59.59,0,0,0,.55,1Z"/><path class="cls-150" d="M460.1,280.64a.52.52,0,0,0-.13-.14l0,0a.77.77,0,0,0,.49-.1.8.8,0,0,0-.82-1.36.78.78,0,0,0-.32.4h0a.47.47,0,0,0-.06-.18.52.52,0,1,0-.9.54.51.51,0,0,0,.16.16.78.78,0,0,0-.09.44.54.54,0,0,0,.65.84s0,0,0,.05a.59.59,0,0,0,1-.61Z"/><path class="cls-151" d="M455.65,279.22a.52.52,0,0,0-.19,0l0-.05a.77.77,0,0,0,.17-.47.8.8,0,0,0-1.59,0,.78.78,0,0,0,.18.48l0,0a.47.47,0,0,0-.19,0,.52.52,0,1,0,0,1,.51.51,0,0,0,.22-.05.78.78,0,0,0,.33.3.54.54,0,0,0,1.05-.12h.05a.59.59,0,0,0,0-1.18Z"/><path class="cls-152" d="M454.25,284.84a.52.52,0,0,0,.15-.12l0,0a.77.77,0,0,0,.07.49.8.8,0,0,0,1.41-.74.78.78,0,0,0-.39-.34s0,0,0,0a.47.47,0,0,0,.18,0,.52.52,0,0,0-.49-.93.51.51,0,0,0-.17.15.78.78,0,0,0-.43-.11.54.54,0,0,0-.88.6l-.05,0a.59.59,0,0,0,.55,1Z"/><path class="cls-153" d="M458.29,281.66a.52.52,0,0,0-.13-.14l0,0a.77.77,0,0,0,.49-.1.8.8,0,0,0-.82-1.36.78.78,0,0,0-.32.4h0a.47.47,0,0,0-.06-.18.52.52,0,1,0-.9.54.51.51,0,0,0,.16.16.78.78,0,0,0-.09.44.54.54,0,0,0,.65.84s0,0,0,.05a.59.59,0,0,0,1-.61Z"/><path class="cls-154" d="M459.18,278.86a.52.52,0,0,0-.07.18h-.06a.77.77,0,0,0-.29-.4.8.8,0,0,0-.89,1.32.78.78,0,0,0,.5.12l0,0a.47.47,0,0,0-.14.13.52.52,0,0,0,.87.58.51.51,0,0,0,.08-.22.78.78,0,0,0,.43-.11.54.54,0,0,0,.49-.94l0,0a.59.59,0,0,0-1-.66Z"/><path class="cls-155" d="M458.92,284.47a.52.52,0,0,0-.19,0l0-.05a.77.77,0,0,0,.17-.47.8.8,0,0,0-1.59,0,.78.78,0,0,0,.18.48l0,0a.47.47,0,0,0-.19,0,.52.52,0,1,0,0,1,.51.51,0,0,0,.22-.05.78.78,0,0,0,.33.3.54.54,0,0,0,1.05-.12h.05a.59.59,0,0,0,0-1.18Z"/><path class="cls-156" d="M462.47,280.27a.52.52,0,0,0-.07.18h-.06a.77.77,0,0,0-.29-.4.8.8,0,0,0-.89,1.32.78.78,0,0,0,.5.12l0,0a.47.47,0,0,0-.14.13.52.52,0,1,0,.87.58.51.51,0,0,0,.08-.22.78.78,0,0,0,.43-.11.54.54,0,0,0,.49-.94l0,0a.59.59,0,0,0-1-.66Z"/><path class="cls-157" d="M461.81,285.73a.52.52,0,0,0,.15-.12l0,0a.77.77,0,0,0,.07.49.8.8,0,0,0,1.41-.74.78.78,0,0,0-.39-.34s0,0,0,0a.47.47,0,0,0,.18,0,.52.52,0,0,0-.49-.93.51.51,0,0,0-.17.15.78.78,0,0,0-.43-.11.54.54,0,0,0-.88.6l-.05,0a.59.59,0,0,0,.55,1Z"/><path class="cls-158" d="M465.05,287.19a.52.52,0,0,0-.13-.14l0,0a.77.77,0,0,0,.49-.1.8.8,0,0,0-.82-1.36.78.78,0,0,0-.32.4h0a.47.47,0,0,0-.06-.18.52.52,0,0,0-.9.54.51.51,0,0,0,.16.16.78.78,0,0,0-.09.44.54.54,0,0,0,.65.84s0,0,0,.05a.59.59,0,0,0,1-.61Z"/><path class="cls-159" d="M457.12,285.49a.52.52,0,0,0-.19,0l0-.05a.77.77,0,0,0,.17-.47.8.8,0,0,0-1.59,0,.78.78,0,0,0,.18.48l0,0a.47.47,0,0,0-.19,0,.52.52,0,1,0,0,1,.51.51,0,0,0,.22-.05.78.78,0,0,0,.33.3.54.54,0,0,0,1.05-.12h.05a.59.59,0,0,0,0-1.18Z"/><path class="cls-160" d="M460,286.75a.52.52,0,0,0,.15-.12l0,0a.77.77,0,0,0,.07.49.8.8,0,0,0,1.41-.74.78.78,0,0,0-.39-.34s0,0,0,0a.47.47,0,0,0,.18,0,.52.52,0,0,0-.49-.93.51.51,0,0,0-.17.15.78.78,0,0,0-.43-.11.54.54,0,0,0-.88.6l-.05,0a.59.59,0,0,0,.55,1Z"/><path class="cls-161" d="M466.06,286.68a.52.52,0,0,0-.13-.14l0,0a.77.77,0,0,0,.49-.1.8.8,0,0,0-.82-1.36.78.78,0,0,0-.32.4h0a.47.47,0,0,0-.06-.18.52.52,0,1,0-.9.54.51.51,0,0,0,.16.16.78.78,0,0,0-.09.44.54.54,0,0,0,.65.84s0,0,0,.05a.59.59,0,0,0,1-.61Z"/></g><g><path class="cls-162" d="M445.18,282.59a.52.52,0,0,0-.07.18H445a.77.77,0,0,0-.29-.4.8.8,0,0,0-.89,1.32.78.78,0,0,0,.5.12l0,0a.47.47,0,0,0-.14.13.52.52,0,0,0,.87.58.51.51,0,0,0,.08-.22.78.78,0,0,0,.43-.11.54.54,0,0,0,.49-.94l0,0a.59.59,0,0,0-1-.66Z"/><path class="cls-163" d="M448.66,283.52a.52.52,0,0,0-.19,0l0-.05a.77.77,0,0,0,.17-.47.8.8,0,0,0-1.59,0,.78.78,0,0,0,.18.48l0,0a.47.47,0,0,0-.19,0,.52.52,0,1,0,0,1,.51.51,0,0,0,.22-.05.78.78,0,0,0,.33.3.54.54,0,0,0,1.05-.12h.05a.59.59,0,0,0,0-1.18Z"/><path class="cls-164" d="M457,282.8a.52.52,0,0,0-.07.18h-.06a.77.77,0,0,0-.29-.4.8.8,0,0,0-.89,1.32.78.78,0,0,0,.5.12l0,0a.47.47,0,0,0-.14.13.52.52,0,0,0,.87.58.51.51,0,0,0,.08-.22.78.78,0,0,0,.43-.11.54.54,0,0,0,.49-.94l0,0a.59.59,0,0,0-1-.66Z"/><path class="cls-165" d="M451,284.4a.52.52,0,0,0,.15-.12l0,0a.77.77,0,0,0,.07.49.8.8,0,0,0,1.41-.74.78.78,0,0,0-.39-.34s0,0,0,0a.47.47,0,0,0,.18,0,.52.52,0,0,0-.49-.93.51.51,0,0,0-.17.15.78.78,0,0,0-.43-.11.54.54,0,0,0-.88.6l-.05,0a.59.59,0,0,0,.55,1Z"/><path class="cls-166" d="M451.91,282.11a.52.52,0,0,0-.13-.14l0,0a.77.77,0,0,0,.49-.1.8.8,0,0,0-.82-1.36.78.78,0,0,0-.32.4h0a.47.47,0,0,0-.06-.18.52.52,0,0,0-.9.54.51.51,0,0,0,.16.16.78.78,0,0,0-.09.44.54.54,0,0,0,.65.84s0,0,0,.05a.59.59,0,0,0,1-.61Z"/><path class="cls-162" d="M447.47,280.69a.52.52,0,0,0-.19,0l0-.05a.77.77,0,0,0,.17-.47.8.8,0,0,0-1.59,0,.78.78,0,0,0,.18.48l0,0a.47.47,0,0,0-.19,0,.52.52,0,0,0,0,1,.51.51,0,0,0,.22-.05.78.78,0,0,0,.33.3.54.54,0,0,0,1.05-.12h.05a.59.59,0,0,0,0-1.18Z"/><path class="cls-162" d="M446.07,286.32a.52.52,0,0,0,.15-.12l0,0a.77.77,0,0,0,.07.49.8.8,0,0,0,1.41-.74.78.78,0,0,0-.39-.34s0,0,0,0a.47.47,0,0,0,.18,0,.52.52,0,0,0-.49-.93.51.51,0,0,0-.17.15.78.78,0,0,0-.43-.11.54.54,0,0,0-.88.6l-.05,0a.59.59,0,0,0,.55,1Z"/><path class="cls-162" d="M450.11,283.13A.52.52,0,0,0,450,283l0,0a.77.77,0,0,0,.49-.1.8.8,0,0,0-.82-1.36.78.78,0,0,0-.32.4h0a.47.47,0,0,0-.06-.18.52.52,0,1,0-.9.54.51.51,0,0,0,.16.16.78.78,0,0,0-.09.44.54.54,0,0,0,.65.84s0,0,0,.05a.59.59,0,0,0,1-.61Z"/><path class="cls-162" d="M451,280.34a.52.52,0,0,0-.07.18h-.06a.77.77,0,0,0-.29-.4.8.8,0,0,0-.89,1.32.78.78,0,0,0,.5.12l0,0a.47.47,0,0,0-.14.13.52.52,0,0,0,.87.58.51.51,0,0,0,.08-.22.78.78,0,0,0,.43-.11.54.54,0,0,0,.49-.94l0,0a.59.59,0,0,0-1-.66Z"/><path class="cls-167" d="M450.74,285.94a.52.52,0,0,0-.19,0l0-.05a.77.77,0,0,0,.17-.47.8.8,0,0,0-1.59,0,.78.78,0,0,0,.18.48l0,0a.47.47,0,0,0-.19,0,.52.52,0,1,0,0,1,.51.51,0,0,0,.22-.05.78.78,0,0,0,.33.3.54.54,0,0,0,1.05-.12h.05a.59.59,0,0,0,0-1.18Z"/><path class="cls-168" d="M454.29,281.74a.52.52,0,0,0-.07.18h-.06a.77.77,0,0,0-.29-.4.8.8,0,0,0-.89,1.32.78.78,0,0,0,.5.12l0,0a.47.47,0,0,0-.14.13.52.52,0,1,0,.87.58.51.51,0,0,0,.08-.22.78.78,0,0,0,.43-.11.54.54,0,0,0,.49-.94l0,0a.59.59,0,0,0-1-.66Z"/><path class="cls-169" d="M453.63,287.21a.52.52,0,0,0,.15-.12l0,0a.77.77,0,0,0,.07.49.8.8,0,0,0,1.41-.74.78.78,0,0,0-.39-.34s0,0,0,0a.47.47,0,0,0,.18,0,.52.52,0,0,0-.49-.93.51.51,0,0,0-.17.15.78.78,0,0,0-.43-.11.54.54,0,0,0-.88.6l-.05,0a.59.59,0,0,0,.55,1Z"/><path class="cls-170" d="M459.68,287.14a.52.52,0,0,0-.13-.14l0,0a.77.77,0,0,0,.49-.1.8.8,0,0,0-.82-1.36.78.78,0,0,0-.32.4h0a.47.47,0,0,0-.06-.18.52.52,0,1,0-.9.54.51.51,0,0,0,.16.16.78.78,0,0,0-.09.44.54.54,0,0,0,.65.84s0,0,0,.05a.59.59,0,0,0,1-.61Z"/><path class="cls-162" d="M448.93,287a.52.52,0,0,0-.19,0l0-.05a.77.77,0,0,0,.17-.47.8.8,0,0,0-1.59,0,.78.78,0,0,0,.18.48l0,0a.47.47,0,0,0-.19,0,.52.52,0,0,0,0,1,.51.51,0,0,0,.22-.05.78.78,0,0,0,.33.3.54.54,0,0,0,1.05-.12h.05a.59.59,0,0,0,0-1.18Z"/><path class="cls-162" d="M451.83,288.23a.52.52,0,0,0,.15-.12l0,0a.77.77,0,0,0,.07.49.8.8,0,0,0,1.41-.74.78.78,0,0,0-.39-.34s0,0,0,0a.47.47,0,0,0,.18,0,.52.52,0,0,0-.49-.93.51.51,0,0,0-.17.15.78.78,0,0,0-.43-.11.54.54,0,0,0-.88.6l-.05,0a.59.59,0,0,0,.55,1Z"/><path class="cls-162" d="M457.88,288.16a.52.52,0,0,0-.13-.14l0,0a.77.77,0,0,0,.49-.1.8.8,0,0,0-.82-1.36.78.78,0,0,0-.32.4h0a.47.47,0,0,0-.06-.18.52.52,0,0,0-.9.54.51.51,0,0,0,.16.16.78.78,0,0,0-.09.44.54.54,0,0,0,.65.84s0,0,0,.05a.59.59,0,0,0,1-.61Z"/><path class="cls-162" d="M451.42,278.16a.52.52,0,0,0-.07.18h-.06a.77.77,0,0,0-.29-.4.8.8,0,0,0-.89,1.32.78.78,0,0,0,.5.12l0,0a.47.47,0,0,0-.14.13.52.52,0,0,0,.87.58.51.51,0,0,0,.08-.22.78.78,0,0,0,.43-.11.54.54,0,0,0,.49-.94l0,0a.59.59,0,0,0-1-.66Z"/><path class="cls-171" d="M454.9,279.08a.52.52,0,0,0-.19,0l0-.05a.77.77,0,0,0,.17-.47.8.8,0,0,0-1.59,0,.78.78,0,0,0,.18.48l0,0a.47.47,0,0,0-.19,0,.52.52,0,0,0,0,1,.51.51,0,0,0,.22-.05.78.78,0,0,0,.33.3.54.54,0,0,0,1.05-.12h.05a.59.59,0,0,0,0-1.18Z"/><path class="cls-172" d="M463.2,278.36a.52.52,0,0,0-.07.18h-.06a.77.77,0,0,0-.29-.4.8.8,0,0,0-.89,1.32.78.78,0,0,0,.5.12l0,0a.47.47,0,0,0-.14.13.52.52,0,1,0,.87.58.51.51,0,0,0,.08-.22.78.78,0,0,0,.43-.11.54.54,0,0,0,.49-.94l0,0a.59.59,0,0,0-1-.66Z"/><path class="cls-173" d="M457.2,280a.52.52,0,0,0,.15-.12l0,0a.77.77,0,0,0,.07.49.8.8,0,0,0,1.41-.74.78.78,0,0,0-.39-.34s0,0,0,0a.47.47,0,0,0,.18,0,.52.52,0,1,0-.49-.93.51.51,0,0,0-.17.15.78.78,0,0,0-.43-.11.54.54,0,0,0-.88.6l-.05,0a.59.59,0,0,0,.55,1Z"/><path class="cls-174" d="M458.15,277.68a.52.52,0,0,0-.13-.14l0,0a.77.77,0,0,0,.49-.1.8.8,0,0,0-.82-1.36.78.78,0,0,0-.32.4h0a.47.47,0,0,0-.06-.18.52.52,0,1,0-.9.54.51.51,0,0,0,.16.16.78.78,0,0,0-.09.44.54.54,0,0,0,.65.84s0,0,0,.05a.59.59,0,0,0,1-.61Z"/><path class="cls-162" d="M453.71,276.26a.52.52,0,0,0-.19,0l0-.05a.77.77,0,0,0,.17-.47.8.8,0,0,0-1.59,0,.78.78,0,0,0,.18.48l0,0a.47.47,0,0,0-.19,0,.52.52,0,1,0,0,1,.51.51,0,0,0,.22-.05.78.78,0,0,0,.33.3.54.54,0,0,0,1.05-.12h.05a.59.59,0,0,0,0-1.18Z"/><path class="cls-162" d="M452.31,281.89a.52.52,0,0,0,.15-.12l0,0a.77.77,0,0,0,.07.49.8.8,0,0,0,1.41-.74.78.78,0,0,0-.39-.34s0,0,0,0a.47.47,0,0,0,.18,0,.52.52,0,0,0-.49-.93.51.51,0,0,0-.17.15.78.78,0,0,0-.43-.11.54.54,0,0,0-.88.6l-.05,0a.59.59,0,0,0,.55,1Z"/><path class="cls-162" d="M456.35,278.7a.52.52,0,0,0-.13-.14l0,0a.77.77,0,0,0,.49-.1.8.8,0,0,0-.82-1.36.78.78,0,0,0-.32.4h0a.47.47,0,0,0-.06-.18.52.52,0,0,0-.9.54.51.51,0,0,0,.16.16.78.78,0,0,0-.09.44.54.54,0,0,0,.65.84s0,0,0,.05a.59.59,0,0,0,1-.61Z"/><path class="cls-162" d="M457.24,275.9a.52.52,0,0,0-.07.18h-.06a.77.77,0,0,0-.29-.4.8.8,0,0,0-.89,1.32.78.78,0,0,0,.5.12l0,0a.47.47,0,0,0-.14.13.52.52,0,0,0,.87.58.51.51,0,0,0,.08-.22.78.78,0,0,0,.43-.11.54.54,0,0,0,.49-.94l0,0a.59.59,0,0,0-1-.66Z"/><path class="cls-175" d="M457,281.51a.52.52,0,0,0-.19,0l0-.05a.77.77,0,0,0,.17-.47.8.8,0,0,0-1.59,0,.78.78,0,0,0,.18.48l0,0a.47.47,0,0,0-.19,0,.52.52,0,0,0,0,1,.51.51,0,0,0,.22-.05.78.78,0,0,0,.33.3.54.54,0,0,0,1.05-.12H457a.59.59,0,0,0,0-1.18Z"/><path class="cls-176" d="M460.53,277.31a.52.52,0,0,0-.07.18h-.06a.77.77,0,0,0-.29-.4.8.8,0,0,0-.89,1.32.78.78,0,0,0,.5.12l0,0a.47.47,0,0,0-.14.13.52.52,0,1,0,.87.58.51.51,0,0,0,.08-.22.78.78,0,0,0,.43-.11.54.54,0,0,0,.49-.94l0,0a.59.59,0,0,0-1-.66Z"/><path class="cls-177" d="M459.87,282.78a.52.52,0,0,0,.15-.12l0,0a.77.77,0,0,0,.07.49.8.8,0,0,0,1.41-.74.78.78,0,0,0-.39-.34s0,0,0,0a.47.47,0,0,0,.18,0,.52.52,0,1,0-.49-.93.51.51,0,0,0-.17.15.78.78,0,0,0-.43-.11.54.54,0,0,0-.88.6l-.05,0a.59.59,0,0,0,.55,1Z"/><path class="cls-178" d="M465.61,285.27a.52.52,0,0,0-.13-.14l0,0a.77.77,0,0,0,.49-.1.8.8,0,0,0-.82-1.36.78.78,0,0,0-.32.4h0a.47.47,0,0,0-.06-.18.52.52,0,1,0-.9.54.51.51,0,0,0,.16.16.78.78,0,0,0-.09.44.54.54,0,0,0,.65.84s0,0,0,.05a.59.59,0,0,0,1-.61Z"/><path class="cls-162" d="M455.17,282.53a.52.52,0,0,0-.19,0l0-.05a.77.77,0,0,0,.17-.47.8.8,0,0,0-1.59,0,.78.78,0,0,0,.18.48l0,0a.47.47,0,0,0-.19,0,.52.52,0,0,0,0,1,.51.51,0,0,0,.22-.05.78.78,0,0,0,.33.3.54.54,0,0,0,1.05-.12h.05a.59.59,0,0,0,0-1.18Z"/><path class="cls-162" d="M458.07,283.79a.52.52,0,0,0,.15-.12l0,0a.77.77,0,0,0,.07.49.8.8,0,0,0,1.41-.74.78.78,0,0,0-.39-.34s0,0,0,0a.47.47,0,0,0,.18,0,.52.52,0,1,0-.49-.93.51.51,0,0,0-.17.15.78.78,0,0,0-.43-.11.54.54,0,0,0-.88.6l-.05,0a.59.59,0,0,0,.55,1Z"/><path class="cls-162" d="M464.12,283.73a.52.52,0,0,0-.13-.14l0,0a.77.77,0,0,0,.49-.1.8.8,0,0,0-.82-1.36.78.78,0,0,0-.32.4h0a.47.47,0,0,0-.06-.18.52.52,0,1,0-.9.54.51.51,0,0,0,.16.16.78.78,0,0,0-.09.44.54.54,0,0,0,.65.84s0,0,0,.05a.59.59,0,0,0,1-.61Z"/></g></g><path class="cls-162" d="M467.54,284a.52.52,0,0,0-.19,0l0-.05a.77.77,0,0,0,.17-.47.8.8,0,0,0-1.59,0,.78.78,0,0,0,.18.48l0,0a.47.47,0,0,0-.19,0,.52.52,0,0,0,0,1,.51.51,0,0,0,.22-.05.78.78,0,0,0,.33.3.54.54,0,0,0,1.05-.12h.05a.59.59,0,0,0,0-1.18Z"/><path class="cls-162" d="M463.89,287.14a.52.52,0,0,0-.19,0l0-.05a.77.77,0,0,0,.17-.47.8.8,0,0,0-1.59,0,.78.78,0,0,0,.18.48l0,0a.47.47,0,0,0-.19,0,.52.52,0,0,0,0,1,.51.51,0,0,0,.22-.05.78.78,0,0,0,.33.3.54.54,0,0,0,1.05-.12h.05a.59.59,0,0,0,0-1.18Z"/></g><path class="cls-74" d="M331.69,354.84a66.23,66.23,0,0,1-8-2.74c-3-1.38-6.1-2-7.1-2.84s-4.12-6.64,2.52-5.35,6.29,1.89,5.7,1.06-.68-.89-.68-1.53c0-1,3,.76,4.2,1.47s4.27,5.55,4.27,5.55Z"/><path class="cls-179" d="M327.11,350.69a4.19,4.19,0,0,1,3.69-3.56,43.11,43.11,0,0,0,15.82,0c3.77-4.56,8.84-15.64,10.77-20.07,2.14-4.93,7.36-7.67,10.92-3.84,3,3.27-.47,11-.47,11s-11.24,23.92-16.59,25.94c-4.72,1.79-22.38-5.18-22.38-5.18S326.57,354,327.11,350.69Z"/></g></g></g></g></svg>