<?xml version="1.0" encoding="UTF-8" standalone="no"?>
<!DOCTYPE svg PUBLIC "-//W3C//DTD SVG 1.1//EN" "http://www.w3.org/Graphics/SVG/1.1/DTD/svg11.dtd">
<svg width="100%" height="100%" viewBox="0 0 800 100" version="1.1" xmlns="http://www.w3.org/2000/svg" xmlns:xlink="http://www.w3.org/1999/xlink" xml:space="preserve" xmlns:serif="http://www.serif.com/" style="fill-rule:evenodd;clip-rule:evenodd;stroke-linejoin:round;stroke-miterlimit:2;">
    <g transform="matrix(1,0,0,1,-41.5801,-69.4736)">
        <g transform="matrix(116,0,0,116,43,160)">
            <path d="M0.59,-0.271C0.59,-0.188 0.56,-0.121 0.5,-0.069C0.44,-0.016 0.376,0.01 0.31,0.01C0.244,0.01 0.18,-0.016 0.12,-0.069C0.059,-0.121 0.029,-0.188 0.029,-0.271L0.029,-0.708L0.153,-0.708L0.153,-0.271C0.153,-0.233 0.167,-0.197 0.197,-0.163C0.226,-0.129 0.264,-0.112 0.31,-0.112C0.358,-0.112 0.395,-0.129 0.422,-0.162C0.448,-0.196 0.462,-0.232 0.462,-0.271L0.462,-0.708L0.59,-0.708L0.59,-0.271Z" style="fill:rgb(255,209,0);fill-rule:nonzero;"/>
        </g>
        <g transform="matrix(116,0,0,116,114.877,160)">
            <path d="M0.519,-0.128L0.519,0L0.029,0L0.029,-0.708L0.158,-0.708L0.158,-0.128L0.519,-0.128Z" style="fill:rgb(255,209,0);fill-rule:nonzero;"/>
        </g>
        <g transform="matrix(116,0,0,116,160.926,160)">
            <path d="M0.376,0L0.248,0L0.248,-0.58L0.029,-0.58L0.029,-0.708L0.59,-0.708L0.59,-0.58L0.376,-0.58L0.376,0Z" style="fill:rgb(255,209,0);fill-rule:nonzero;"/>
        </g>
        <g transform="matrix(116,0,0,116,232.803,160)">
            <path d="M0.386,-0.418C0.408,-0.418 0.426,-0.426 0.44,-0.44C0.458,-0.458 0.467,-0.477 0.467,-0.5C0.467,-0.521 0.458,-0.541 0.44,-0.559C0.426,-0.573 0.408,-0.58 0.386,-0.58L0.158,-0.58L0.158,-0.418L0.386,-0.418ZM0.653,0L0.5,0L0.296,-0.29L0.158,-0.29L0.158,0L0.029,0L0.029,-0.708L0.386,-0.708C0.412,-0.708 0.438,-0.702 0.463,-0.69C0.49,-0.681 0.513,-0.666 0.531,-0.645C0.55,-0.626 0.565,-0.606 0.576,-0.583L0.577,-0.579C0.586,-0.553 0.59,-0.527 0.59,-0.5C0.59,-0.472 0.586,-0.447 0.577,-0.423C0.567,-0.4 0.555,-0.381 0.541,-0.363L0.54,-0.362C0.512,-0.331 0.48,-0.31 0.442,-0.299L0.653,0Z" style="fill:rgb(255,209,0);fill-rule:nonzero;"/>
        </g>
        <g transform="matrix(116,0,0,116,311.93,160)">
            <path d="M0.727,0L0.59,0L0.375,-0.509L0.164,0L0.029,0L0.328,-0.708L0.42,-0.708L0.727,0Z" style="fill:rgb(255,209,0);fill-rule:nonzero;"/>
        </g>
        <g transform="matrix(116,0,0,116,399.666,160)">
            <path d="M0.604,-0.708L0.604,0L0.474,0L0.158,-0.49L0.158,0L0.029,0L0.029,-0.708L0.164,-0.708L0.476,-0.224L0.476,-0.708L0.604,-0.708Z" style="fill:rgb(255,209,0);fill-rule:nonzero;"/>
        </g>
        <g transform="matrix(116,0,0,116,473.186,160)">
            <path d="M0.029,0L0.029,-0.708L0.59,-0.708L0.59,-0.58L0.158,-0.58L0.158,-0.418L0.519,-0.418L0.519,-0.29L0.158,-0.29L0.158,-0.128L0.59,-0.128L0.59,0L0.029,0Z" style="fill:rgb(255,209,0);fill-rule:nonzero;"/>
        </g>
        <g transform="matrix(116,0,0,116,545.062,160)">
            <path d="M0.386,-0.128C0.408,-0.128 0.426,-0.136 0.44,-0.15C0.458,-0.168 0.467,-0.187 0.467,-0.209C0.467,-0.231 0.458,-0.251 0.44,-0.269C0.426,-0.283 0.408,-0.29 0.386,-0.29L0.158,-0.29L0.158,-0.128L0.386,-0.128ZM0.158,-0.58L0.158,-0.418L0.386,-0.418C0.408,-0.418 0.426,-0.426 0.44,-0.44C0.458,-0.458 0.467,-0.478 0.467,-0.5C0.467,-0.521 0.458,-0.541 0.44,-0.559C0.426,-0.573 0.408,-0.58 0.386,-0.58L0.158,-0.58ZM0.531,-0.064C0.513,-0.046 0.49,-0.03 0.462,-0.018C0.438,-0.006 0.413,0 0.386,0L0.029,0L0.029,-0.708L0.386,-0.708C0.412,-0.708 0.438,-0.702 0.463,-0.69C0.49,-0.681 0.513,-0.666 0.531,-0.645C0.55,-0.626 0.565,-0.606 0.576,-0.583L0.578,-0.579C0.586,-0.553 0.59,-0.527 0.59,-0.5C0.59,-0.472 0.586,-0.447 0.577,-0.423C0.57,-0.406 0.556,-0.383 0.535,-0.356C0.556,-0.329 0.569,-0.306 0.577,-0.287C0.586,-0.262 0.59,-0.236 0.59,-0.209C0.59,-0.182 0.586,-0.155 0.578,-0.13L0.576,-0.125C0.565,-0.103 0.55,-0.083 0.531,-0.064Z" style="fill:rgb(255,209,0);fill-rule:nonzero;"/>
        </g>
        <g transform="matrix(116,0,0,116,616.939,160)">
            <path d="M0.59,-0.271C0.59,-0.188 0.56,-0.121 0.5,-0.069C0.44,-0.016 0.376,0.01 0.31,0.01C0.244,0.01 0.18,-0.016 0.12,-0.069C0.059,-0.121 0.029,-0.188 0.029,-0.271L0.029,-0.708L0.153,-0.708L0.153,-0.271C0.153,-0.233 0.167,-0.197 0.197,-0.163C0.226,-0.129 0.264,-0.112 0.31,-0.112C0.358,-0.112 0.395,-0.129 0.422,-0.162C0.448,-0.196 0.462,-0.232 0.462,-0.271L0.462,-0.708L0.59,-0.708L0.59,-0.271Z" style="fill:rgb(255,209,0);fill-rule:nonzero;"/>
        </g>
        <g transform="matrix(116,0,0,116,688.816,160)">
            <path d="M0.519,-0.128L0.519,0L0.029,0L0.029,-0.708L0.158,-0.708L0.158,-0.128L0.519,-0.128Z" style="fill:rgb(255,209,0);fill-rule:nonzero;"/>
        </g>
        <g transform="matrix(116,0,0,116,752.424,160)">
            <path d="M0.727,0L0.59,0L0.375,-0.509L0.164,0L0.029,0L0.328,-0.708L0.42,-0.708L0.727,0Z" style="fill:rgb(255,209,0);fill-rule:nonzero;"/>
        </g>
    </g>
</svg>
